<mxfile host="65bd71144e">
    <diagram id="V1M_aC5qeyScrHkTG354" name="Page-1">
        <mxGraphModel dx="4058" dy="3013" grid="1" gridSize="10" guides="1" tooltips="1" connect="1" arrows="1" fold="1" page="1" pageScale="1" pageWidth="850" pageHeight="1100" math="0" shadow="0">
            <root>
                <mxCell id="0"/>
                <mxCell id="1" parent="0"/>
                <mxCell id="2" value="Main" style="swimlane;fontStyle=1;align=center;verticalAlign=middle;childLayout=stackLayout;horizontal=1;startSize=29;horizontalStack=0;resizeParent=1;resizeParentMax=0;resizeLast=0;collapsible=0;marginBottom=0;html=1;" parent="1" vertex="1">
                    <mxGeometry x="-2280" y="-1766" width="290" height="62" as="geometry"/>
                </mxCell>
                <mxCell id="17" value="" style="line;strokeWidth=1;fillColor=none;align=left;verticalAlign=middle;spacingTop=-1;spacingLeft=3;spacingRight=3;rotatable=0;labelPosition=right;points=[];portConstraint=eastwest;strokeColor=inherit;" parent="2" vertex="1">
                    <mxGeometry y="29" width="290" height="8" as="geometry"/>
                </mxCell>
                <mxCell id="18" value="+ start() : void" style="text;html=1;strokeColor=none;fillColor=none;align=left;verticalAlign=middle;spacingLeft=4;spacingRight=4;overflow=hidden;rotatable=0;points=[[0,0.5],[1,0.5]];portConstraint=eastwest;" parent="2" vertex="1">
                    <mxGeometry y="37" width="290" height="25" as="geometry"/>
                </mxCell>
                <mxCell id="28" value="AccountController" style="swimlane;fontStyle=1;align=center;verticalAlign=middle;childLayout=stackLayout;horizontal=1;startSize=29;horizontalStack=0;resizeParent=1;resizeParentMax=0;resizeLast=0;collapsible=0;marginBottom=0;html=1;" parent="1" vertex="1">
                    <mxGeometry x="528" y="-255" width="470" height="312" as="geometry"/>
                </mxCell>
                <mxCell id="124" value="- accountBtn, homeBtn, noticeBtn, menuBtn, personaleBtn, personalizzaBtn : Button" style="text;html=1;strokeColor=none;fillColor=none;align=left;verticalAlign=middle;spacingLeft=4;spacingRight=4;overflow=hidden;rotatable=0;points=[[0,0.5],[1,0.5]];portConstraint=eastwest;" parent="28" vertex="1">
                    <mxGeometry y="29" width="470" height="25" as="geometry"/>
                </mxCell>
                <mxCell id="128" value="- sidebarBtn : ImageView" style="text;html=1;strokeColor=none;fillColor=none;align=left;verticalAlign=middle;spacingLeft=4;spacingRight=4;overflow=hidden;rotatable=0;points=[[0,0.5],[1,0.5]];portConstraint=eastwest;" parent="28" vertex="1">
                    <mxGeometry y="54" width="470" height="25" as="geometry"/>
                </mxCell>
                <mxCell id="129" value="- nomeInput, cognomeInput, mailInput: TextField" style="text;html=1;strokeColor=none;fillColor=none;align=left;verticalAlign=middle;spacingLeft=4;spacingRight=4;overflow=hidden;rotatable=0;points=[[0,0.5],[1,0.5]];portConstraint=eastwest;" parent="28" vertex="1">
                    <mxGeometry y="79" width="470" height="25" as="geometry"/>
                </mxCell>
                <mxCell id="130" value="- errorLabel : Label" style="text;html=1;strokeColor=none;fillColor=none;align=left;verticalAlign=middle;spacingLeft=4;spacingRight=4;overflow=hidden;rotatable=0;points=[[0,0.5],[1,0.5]];portConstraint=eastwest;" parent="28" vertex="1">
                    <mxGeometry y="104" width="470" height="25" as="geometry"/>
                </mxCell>
                <mxCell id="134" value="- loggedUser: User" style="text;html=1;strokeColor=none;fillColor=none;align=left;verticalAlign=middle;spacingLeft=4;spacingRight=4;overflow=hidden;rotatable=0;points=[[0,0.5],[1,0.5]];portConstraint=eastwest;" parent="28" vertex="1">
                    <mxGeometry y="129" width="470" height="25" as="geometry"/>
                </mxCell>
                <mxCell id="29" value="" style="line;strokeWidth=1;fillColor=none;align=left;verticalAlign=middle;spacingTop=-1;spacingLeft=3;spacingRight=3;rotatable=0;labelPosition=right;points=[];portConstraint=eastwest;strokeColor=inherit;" parent="28" vertex="1">
                    <mxGeometry y="154" width="470" height="8" as="geometry"/>
                </mxCell>
                <mxCell id="30" value="+ initialize() : void" style="text;html=1;strokeColor=none;fillColor=none;align=left;verticalAlign=middle;spacingLeft=4;spacingRight=4;overflow=hidden;rotatable=0;points=[[0,0.5],[1,0.5]];portConstraint=eastwest;" parent="28" vertex="1">
                    <mxGeometry y="162" width="470" height="25" as="geometry"/>
                </mxCell>
                <mxCell id="492" value="+ openAccount() : void" style="text;html=1;strokeColor=none;fillColor=none;align=left;verticalAlign=middle;spacingLeft=4;spacingRight=4;overflow=hidden;rotatable=0;points=[[0,0.5],[1,0.5]];portConstraint=eastwest;" vertex="1" parent="28">
                    <mxGeometry y="187" width="470" height="25" as="geometry"/>
                </mxCell>
                <mxCell id="135" value="- mostraDatiAccount() : void" style="text;html=1;strokeColor=none;fillColor=none;align=left;verticalAlign=middle;spacingLeft=4;spacingRight=4;overflow=hidden;rotatable=0;points=[[0,0.5],[1,0.5]];portConstraint=eastwest;" parent="28" vertex="1">
                    <mxGeometry y="212" width="470" height="25" as="geometry"/>
                </mxCell>
                <mxCell id="136" value="+ modificaProfilo() : void" style="text;html=1;strokeColor=none;fillColor=none;align=left;verticalAlign=middle;spacingLeft=4;spacingRight=4;overflow=hidden;rotatable=0;points=[[0,0.5],[1,0.5]];portConstraint=eastwest;" parent="28" vertex="1">
                    <mxGeometry y="237" width="470" height="25" as="geometry"/>
                </mxCell>
                <mxCell id="137" value="+ goToHome/Notice/GestisciPersonale/Personalizza/Account() : void" style="text;html=1;strokeColor=none;fillColor=none;align=left;verticalAlign=middle;spacingLeft=4;spacingRight=4;overflow=hidden;rotatable=0;points=[[0,0.5],[1,0.5]];portConstraint=eastwest;" parent="28" vertex="1">
                    <mxGeometry y="262" width="470" height="25" as="geometry"/>
                </mxCell>
                <mxCell id="141" value="+ showSideBar()" style="text;html=1;strokeColor=none;fillColor=none;align=left;verticalAlign=middle;spacingLeft=4;spacingRight=4;overflow=hidden;rotatable=0;points=[[0,0.5],[1,0.5]];portConstraint=eastwest;" parent="28" vertex="1">
                    <mxGeometry y="287" width="470" height="25" as="geometry"/>
                </mxCell>
                <mxCell id="458" style="edgeStyle=none;html=1;" parent="1" source="31" target="64" edge="1">
                    <mxGeometry relative="1" as="geometry"/>
                </mxCell>
                <mxCell id="459" value="1" style="edgeLabel;html=1;align=center;verticalAlign=middle;resizable=0;points=[];" parent="458" connectable="0" vertex="1">
                    <mxGeometry x="0.7906" y="1" relative="1" as="geometry">
                        <mxPoint as="offset"/>
                    </mxGeometry>
                </mxCell>
                <mxCell id="31" value="AvvisiController" style="swimlane;fontStyle=1;align=center;verticalAlign=middle;childLayout=stackLayout;horizontal=1;startSize=29;horizontalStack=0;resizeParent=1;resizeParentMax=0;resizeLast=0;collapsible=0;marginBottom=0;html=1;" parent="1" vertex="1">
                    <mxGeometry x="207" y="94" width="470" height="337" as="geometry"/>
                </mxCell>
                <mxCell id="146" value="- accountBtn, homeBtn, noticeBtn, menuBtn, personaleBtn, personalizzaBtn : Button" style="text;html=1;strokeColor=none;fillColor=none;align=left;verticalAlign=middle;spacingLeft=4;spacingRight=4;overflow=hidden;rotatable=0;points=[[0,0.5],[1,0.5]];portConstraint=eastwest;" parent="31" vertex="1">
                    <mxGeometry y="29" width="470" height="25" as="geometry"/>
                </mxCell>
                <mxCell id="147" value="- sidebarBtn : ImageView" style="text;html=1;strokeColor=none;fillColor=none;align=left;verticalAlign=middle;spacingLeft=4;spacingRight=4;overflow=hidden;rotatable=0;points=[[0,0.5],[1,0.5]];portConstraint=eastwest;" parent="31" vertex="1">
                    <mxGeometry y="54" width="470" height="25" as="geometry"/>
                </mxCell>
                <mxCell id="148" value="- testoAvviso : TextArea" style="text;html=1;strokeColor=none;fillColor=none;align=left;verticalAlign=middle;spacingLeft=4;spacingRight=4;overflow=hidden;rotatable=0;points=[[0,0.5],[1,0.5]];portConstraint=eastwest;" parent="31" vertex="1">
                    <mxGeometry y="79" width="470" height="25" as="geometry"/>
                </mxCell>
                <mxCell id="149" value="- inviaButton : Button" style="text;html=1;strokeColor=none;fillColor=none;align=left;verticalAlign=middle;spacingLeft=4;spacingRight=4;overflow=hidden;rotatable=0;points=[[0,0.5],[1,0.5]];portConstraint=eastwest;" parent="31" vertex="1">
                    <mxGeometry y="104" width="470" height="25" as="geometry"/>
                </mxCell>
                <mxCell id="150" value="- errorLabel: Label" style="text;html=1;strokeColor=none;fillColor=none;align=left;verticalAlign=middle;spacingLeft=4;spacingRight=4;overflow=hidden;rotatable=0;points=[[0,0.5],[1,0.5]];portConstraint=eastwest;" parent="31" vertex="1">
                    <mxGeometry y="129" width="470" height="25" as="geometry"/>
                </mxCell>
                <mxCell id="32" value="" style="line;strokeWidth=1;fillColor=none;align=left;verticalAlign=middle;spacingTop=-1;spacingLeft=3;spacingRight=3;rotatable=0;labelPosition=right;points=[];portConstraint=eastwest;strokeColor=inherit;" parent="31" vertex="1">
                    <mxGeometry y="154" width="470" height="8" as="geometry"/>
                </mxCell>
                <mxCell id="33" value="- scriviAvviso() : void" style="text;html=1;strokeColor=none;fillColor=none;align=left;verticalAlign=middle;spacingLeft=4;spacingRight=4;overflow=hidden;rotatable=0;points=[[0,0.5],[1,0.5]];portConstraint=eastwest;" parent="31" vertex="1">
                    <mxGeometry y="162" width="470" height="25" as="geometry"/>
                </mxCell>
                <mxCell id="494" value="- openAvvisi() : void" style="text;html=1;strokeColor=none;fillColor=none;align=left;verticalAlign=middle;spacingLeft=4;spacingRight=4;overflow=hidden;rotatable=0;points=[[0,0.5],[1,0.5]];portConstraint=eastwest;" vertex="1" parent="31">
                    <mxGeometry y="187" width="470" height="25" as="geometry"/>
                </mxCell>
                <mxCell id="153" value="+ goToHome/Notice/GestisciPersonale/Personalizza/Account() : void" style="text;html=1;strokeColor=none;fillColor=none;align=left;verticalAlign=middle;spacingLeft=4;spacingRight=4;overflow=hidden;rotatable=0;points=[[0,0.5],[1,0.5]];portConstraint=eastwest;" vertex="1" parent="31">
                    <mxGeometry y="212" width="470" height="25" as="geometry"/>
                </mxCell>
                <mxCell id="154" value="+ showSideBar()" style="text;html=1;strokeColor=none;fillColor=none;align=left;verticalAlign=middle;spacingLeft=4;spacingRight=4;overflow=hidden;rotatable=0;points=[[0,0.5],[1,0.5]];portConstraint=eastwest;" parent="31" vertex="1">
                    <mxGeometry y="237" width="470" height="25" as="geometry"/>
                </mxCell>
                <mxCell id="156" value="- generateLeftGarbageButtonNotice(BorderPane containerNotice) : ImageView" style="text;html=1;strokeColor=none;fillColor=none;align=left;verticalAlign=middle;spacingLeft=4;spacingRight=4;overflow=hidden;rotatable=0;points=[[0,0.5],[1,0.5]];portConstraint=eastwest;" parent="31" vertex="1">
                    <mxGeometry y="262" width="470" height="25" as="geometry"/>
                </mxCell>
                <mxCell id="157" value="- generateBodyNotice(Avviso avviso, BorderPane containerNotice) : void" style="text;html=1;strokeColor=none;fillColor=none;align=left;verticalAlign=middle;spacingLeft=4;spacingRight=4;overflow=hidden;rotatable=0;points=[[0,0.5],[1,0.5]];portConstraint=eastwest;" parent="31" vertex="1">
                    <mxGeometry y="287" width="470" height="25" as="geometry"/>
                </mxCell>
                <mxCell id="158" value="- generateHeaderNotice(Avviso avviso, BorderPane containerNotice) : void" style="text;html=1;strokeColor=none;fillColor=none;align=left;verticalAlign=middle;spacingLeft=4;spacingRight=4;overflow=hidden;rotatable=0;points=[[0,0.5],[1,0.5]];portConstraint=eastwest;" parent="31" vertex="1">
                    <mxGeometry y="312" width="470" height="25" as="geometry"/>
                </mxCell>
                <mxCell id="446" style="edgeStyle=none;html=1;" parent="1" source="34" target="71" edge="1">
                    <mxGeometry relative="1" as="geometry"/>
                </mxCell>
                <mxCell id="447" value="1" style="edgeLabel;html=1;align=center;verticalAlign=middle;resizable=0;points=[];" parent="446" connectable="0" vertex="1">
                    <mxGeometry x="0.7474" y="1" relative="1" as="geometry">
                        <mxPoint as="offset"/>
                    </mxGeometry>
                </mxCell>
                <mxCell id="479" style="edgeStyle=none;html=1;" parent="1" source="34" target="81" edge="1">
                    <mxGeometry relative="1" as="geometry"/>
                </mxCell>
                <mxCell id="480" value="*" style="edgeLabel;html=1;align=center;verticalAlign=middle;resizable=0;points=[];" parent="479" connectable="0" vertex="1">
                    <mxGeometry x="0.8928" y="5" relative="1" as="geometry">
                        <mxPoint x="-1" as="offset"/>
                    </mxGeometry>
                </mxCell>
                <mxCell id="34" value="GestisciPersonaleController" style="swimlane;fontStyle=1;align=center;verticalAlign=middle;childLayout=stackLayout;horizontal=1;startSize=29;horizontalStack=0;resizeParent=1;resizeParentMax=0;resizeLast=0;collapsible=0;marginBottom=0;html=1;" parent="1" vertex="1">
                    <mxGeometry x="-898" y="-1070" width="470" height="337" as="geometry"/>
                </mxCell>
                <mxCell id="163" value="- errorLabel, nome, cognome, ruolo: Label" style="text;html=1;strokeColor=none;fillColor=none;align=left;verticalAlign=middle;spacingLeft=4;spacingRight=4;overflow=hidden;rotatable=0;points=[[0,0.5],[1,0.5]];portConstraint=eastwest;" parent="34" vertex="1">
                    <mxGeometry y="29" width="470" height="25" as="geometry"/>
                </mxCell>
                <mxCell id="199" value="- loggedUser: User" style="text;html=1;strokeColor=none;fillColor=none;align=left;verticalAlign=middle;spacingLeft=4;spacingRight=4;overflow=hidden;rotatable=0;points=[[0,0.5],[1,0.5]];portConstraint=eastwest;" parent="34" vertex="1">
                    <mxGeometry y="54" width="470" height="25" as="geometry"/>
                </mxCell>
                <mxCell id="169" value="- utentiCombobox: Combobox&amp;lt;String&amp;gt;" style="text;html=1;strokeColor=none;fillColor=none;align=left;verticalAlign=middle;spacingLeft=4;spacingRight=4;overflow=hidden;rotatable=0;points=[[0,0.5],[1,0.5]];portConstraint=eastwest;" parent="34" vertex="1">
                    <mxGeometry y="79" width="470" height="25" as="geometry"/>
                </mxCell>
                <mxCell id="171" value="- ruoloUI: String" style="text;html=1;strokeColor=none;fillColor=none;align=left;verticalAlign=middle;spacingLeft=4;spacingRight=4;overflow=hidden;rotatable=0;points=[[0,0.5],[1,0.5]];portConstraint=eastwest;" parent="34" vertex="1">
                    <mxGeometry y="104" width="470" height="25" as="geometry"/>
                </mxCell>
                <mxCell id="35" value="" style="line;strokeWidth=1;fillColor=none;align=left;verticalAlign=middle;spacingTop=-1;spacingLeft=3;spacingRight=3;rotatable=0;labelPosition=right;points=[];portConstraint=eastwest;strokeColor=inherit;" parent="34" vertex="1">
                    <mxGeometry y="129" width="470" height="8" as="geometry"/>
                </mxCell>
                <mxCell id="36" value="+ initialize() : void" style="text;html=1;strokeColor=none;fillColor=none;align=left;verticalAlign=middle;spacingLeft=4;spacingRight=4;overflow=hidden;rotatable=0;points=[[0,0.5],[1,0.5]];portConstraint=eastwest;" parent="34" vertex="1">
                    <mxGeometry y="137" width="470" height="25" as="geometry"/>
                </mxCell>
                <mxCell id="491" value="+ openGestisciPersonale() : void" style="text;html=1;strokeColor=none;fillColor=none;align=left;verticalAlign=middle;spacingLeft=4;spacingRight=4;overflow=hidden;rotatable=0;points=[[0,0.5],[1,0.5]];portConstraint=eastwest;" vertex="1" parent="34">
                    <mxGeometry y="162" width="470" height="25" as="geometry"/>
                </mxCell>
                <mxCell id="170" value="+ mostraDatiUtente() : void" style="text;html=1;strokeColor=none;fillColor=none;align=left;verticalAlign=middle;spacingLeft=4;spacingRight=4;overflow=hidden;rotatable=0;points=[[0,0.5],[1,0.5]];portConstraint=eastwest;" parent="34" vertex="1">
                    <mxGeometry y="187" width="470" height="25" as="geometry"/>
                </mxCell>
                <mxCell id="172" value="+ goToRisorseUmaneScene() : void" style="text;html=1;strokeColor=none;fillColor=none;align=left;verticalAlign=middle;spacingLeft=4;spacingRight=4;overflow=hidden;rotatable=0;points=[[0,0.5],[1,0.5]];portConstraint=eastwest;" parent="34" vertex="1">
                    <mxGeometry y="212" width="470" height="25" as="geometry"/>
                </mxCell>
                <mxCell id="173" value="+ mostraInformazioniUtente() : void" style="text;html=1;strokeColor=none;fillColor=none;align=left;verticalAlign=middle;spacingLeft=4;spacingRight=4;overflow=hidden;rotatable=0;points=[[0,0.5],[1,0.5]];portConstraint=eastwest;" parent="34" vertex="1">
                    <mxGeometry y="237" width="470" height="25" as="geometry"/>
                </mxCell>
                <mxCell id="175" value="+ declassa() : void" style="text;html=1;strokeColor=none;fillColor=none;align=left;verticalAlign=middle;spacingLeft=4;spacingRight=4;overflow=hidden;rotatable=0;points=[[0,0.5],[1,0.5]];portConstraint=eastwest;" parent="34" vertex="1">
                    <mxGeometry y="262" width="470" height="25" as="geometry"/>
                </mxCell>
                <mxCell id="176" value="+ promuovi() : void" style="text;html=1;strokeColor=none;fillColor=none;align=left;verticalAlign=middle;spacingLeft=4;spacingRight=4;overflow=hidden;rotatable=0;points=[[0,0.5],[1,0.5]];portConstraint=eastwest;" parent="34" vertex="1">
                    <mxGeometry y="287" width="470" height="25" as="geometry"/>
                </mxCell>
                <mxCell id="177" value="+ licenzia() : void" style="text;html=1;strokeColor=none;fillColor=none;align=left;verticalAlign=middle;spacingLeft=4;spacingRight=4;overflow=hidden;rotatable=0;points=[[0,0.5],[1,0.5]];portConstraint=eastwest;" parent="34" vertex="1">
                    <mxGeometry y="312" width="470" height="25" as="geometry"/>
                </mxCell>
                <mxCell id="461" style="edgeStyle=none;html=1;" parent="1" source="37" target="67" edge="1">
                    <mxGeometry relative="1" as="geometry"/>
                </mxCell>
                <mxCell id="462" value="1" style="edgeLabel;html=1;align=center;verticalAlign=middle;resizable=0;points=[];" parent="461" connectable="0" vertex="1">
                    <mxGeometry x="0.7964" y="-3" relative="1" as="geometry">
                        <mxPoint as="offset"/>
                    </mxGeometry>
                </mxCell>
                <mxCell id="37" value="HomeController" style="swimlane;fontStyle=1;align=center;verticalAlign=middle;childLayout=stackLayout;horizontal=1;startSize=29;horizontalStack=0;resizeParent=1;resizeParentMax=0;resizeLast=0;collapsible=0;marginBottom=0;html=1;" parent="1" vertex="1">
                    <mxGeometry x="-1248" y="-224" width="470" height="237" as="geometry"/>
                </mxCell>
                <mxCell id="485" value="- nomeAttivitaLabel: Label" style="text;html=1;strokeColor=none;fillColor=none;align=left;verticalAlign=middle;spacingLeft=4;spacingRight=4;overflow=hidden;rotatable=0;points=[[0,0.5],[1,0.5]];portConstraint=eastwest;" vertex="1" parent="37">
                    <mxGeometry y="29" width="470" height="25" as="geometry"/>
                </mxCell>
                <mxCell id="180" value="- sidebarBtn : ImageView" style="text;html=1;strokeColor=none;fillColor=none;align=left;verticalAlign=middle;spacingLeft=4;spacingRight=4;overflow=hidden;rotatable=0;points=[[0,0.5],[1,0.5]];portConstraint=eastwest;" parent="37" vertex="1">
                    <mxGeometry y="54" width="470" height="25" as="geometry"/>
                </mxCell>
                <mxCell id="198" value="- loggedUser: User" style="text;html=1;strokeColor=none;fillColor=none;align=left;verticalAlign=middle;spacingLeft=4;spacingRight=4;overflow=hidden;rotatable=0;points=[[0,0.5],[1,0.5]];portConstraint=eastwest;" parent="37" vertex="1">
                    <mxGeometry y="79" width="470" height="25" as="geometry"/>
                </mxCell>
                <mxCell id="179" value="- accountBtn, homeBtn, noticeBtn, menuBtn, personaleBtn, personalizzaBtn : Button" style="text;html=1;strokeColor=none;fillColor=none;align=left;verticalAlign=middle;spacingLeft=4;spacingRight=4;overflow=hidden;rotatable=0;points=[[0,0.5],[1,0.5]];portConstraint=eastwest;" parent="37" vertex="1">
                    <mxGeometry y="104" width="470" height="25" as="geometry"/>
                </mxCell>
                <mxCell id="38" value="" style="line;strokeWidth=1;fillColor=none;align=left;verticalAlign=middle;spacingTop=-1;spacingLeft=3;spacingRight=3;rotatable=0;labelPosition=right;points=[];portConstraint=eastwest;strokeColor=inherit;" parent="37" vertex="1">
                    <mxGeometry y="129" width="470" height="8" as="geometry"/>
                </mxCell>
                <mxCell id="39" value="+ initialize() : void" style="text;html=1;strokeColor=none;fillColor=none;align=left;verticalAlign=middle;spacingLeft=4;spacingRight=4;overflow=hidden;rotatable=0;points=[[0,0.5],[1,0.5]];portConstraint=eastwest;" parent="37" vertex="1">
                    <mxGeometry y="137" width="470" height="25" as="geometry"/>
                </mxCell>
                <mxCell id="181" value="+ openHome : void" style="text;html=1;strokeColor=none;fillColor=none;align=left;verticalAlign=middle;spacingLeft=4;spacingRight=4;overflow=hidden;rotatable=0;points=[[0,0.5],[1,0.5]];portConstraint=eastwest;" parent="37" vertex="1">
                    <mxGeometry y="162" width="470" height="25" as="geometry"/>
                </mxCell>
                <mxCell id="497" value="+ goToHome/Notice/GestisciPersonale/Personalizza/Account() : void" style="text;html=1;strokeColor=none;fillColor=none;align=left;verticalAlign=middle;spacingLeft=4;spacingRight=4;overflow=hidden;rotatable=0;points=[[0,0.5],[1,0.5]];portConstraint=eastwest;" vertex="1" parent="37">
                    <mxGeometry y="187" width="470" height="25" as="geometry"/>
                </mxCell>
                <mxCell id="182" value="+ showSideBar()" style="text;html=1;strokeColor=none;fillColor=none;align=left;verticalAlign=middle;spacingLeft=4;spacingRight=4;overflow=hidden;rotatable=0;points=[[0,0.5],[1,0.5]];portConstraint=eastwest;" parent="37" vertex="1">
                    <mxGeometry y="212" width="470" height="25" as="geometry"/>
                </mxCell>
                <mxCell id="444" style="edgeStyle=none;html=1;" parent="1" source="40" target="71" edge="1">
                    <mxGeometry relative="1" as="geometry"/>
                </mxCell>
                <mxCell id="445" value="1" style="edgeLabel;html=1;align=center;verticalAlign=middle;resizable=0;points=[];" parent="444" connectable="0" vertex="1">
                    <mxGeometry x="0.8645" y="-5" relative="1" as="geometry">
                        <mxPoint as="offset"/>
                    </mxGeometry>
                </mxCell>
                <mxCell id="40" value="LoginController" style="swimlane;fontStyle=1;align=center;verticalAlign=middle;childLayout=stackLayout;horizontal=1;startSize=29;horizontalStack=0;resizeParent=1;resizeParentMax=0;resizeLast=0;collapsible=0;marginBottom=0;html=1;" parent="1" vertex="1">
                    <mxGeometry x="-1252" y="-1891" width="470" height="312" as="geometry"/>
                </mxCell>
                <mxCell id="187" value="- email : TextField" style="text;html=1;strokeColor=none;fillColor=none;align=left;verticalAlign=middle;spacingLeft=4;spacingRight=4;overflow=hidden;rotatable=0;points=[[0,0.5],[1,0.5]];portConstraint=eastwest;" parent="40" vertex="1">
                    <mxGeometry y="29" width="470" height="25" as="geometry"/>
                </mxCell>
                <mxCell id="197" value="- loggedUser: User" style="text;html=1;strokeColor=none;fillColor=none;align=left;verticalAlign=middle;spacingLeft=4;spacingRight=4;overflow=hidden;rotatable=0;points=[[0,0.5],[1,0.5]];portConstraint=eastwest;" parent="40" vertex="1">
                    <mxGeometry y="54" width="470" height="25" as="geometry"/>
                </mxCell>
                <mxCell id="188" value="- password : PasswordField" style="text;html=1;strokeColor=none;fillColor=none;align=left;verticalAlign=middle;spacingLeft=4;spacingRight=4;overflow=hidden;rotatable=0;points=[[0,0.5],[1,0.5]];portConstraint=eastwest;" parent="40" vertex="1">
                    <mxGeometry y="79" width="470" height="25" as="geometry"/>
                </mxCell>
                <mxCell id="195" value="- errorLabel:&amp;nbsp; Label" style="text;html=1;strokeColor=none;fillColor=none;align=left;verticalAlign=middle;spacingLeft=4;spacingRight=4;overflow=hidden;rotatable=0;points=[[0,0.5],[1,0.5]];portConstraint=eastwest;" parent="40" vertex="1">
                    <mxGeometry y="104" width="470" height="25" as="geometry"/>
                </mxCell>
                <mxCell id="196" value="- signup : Label" style="text;html=1;strokeColor=none;fillColor=none;align=left;verticalAlign=middle;spacingLeft=4;spacingRight=4;overflow=hidden;rotatable=0;points=[[0,0.5],[1,0.5]];portConstraint=eastwest;" parent="40" vertex="1">
                    <mxGeometry y="129" width="470" height="25" as="geometry"/>
                </mxCell>
                <mxCell id="41" value="" style="line;strokeWidth=1;fillColor=none;align=left;verticalAlign=middle;spacingTop=-1;spacingLeft=3;spacingRight=3;rotatable=0;labelPosition=right;points=[];portConstraint=eastwest;strokeColor=inherit;" parent="40" vertex="1">
                    <mxGeometry y="154" width="470" height="8" as="geometry"/>
                </mxCell>
                <mxCell id="42" value="+ initialize() : void" style="text;html=1;strokeColor=none;fillColor=none;align=left;verticalAlign=middle;spacingLeft=4;spacingRight=4;overflow=hidden;rotatable=0;points=[[0,0.5],[1,0.5]];portConstraint=eastwest;" parent="40" vertex="1">
                    <mxGeometry y="162" width="470" height="25" as="geometry"/>
                </mxCell>
                <mxCell id="487" value="+ openLogin() : void" style="text;html=1;strokeColor=none;fillColor=none;align=left;verticalAlign=middle;spacingLeft=4;spacingRight=4;overflow=hidden;rotatable=0;points=[[0,0.5],[1,0.5]];portConstraint=eastwest;" vertex="1" parent="40">
                    <mxGeometry y="187" width="470" height="25" as="geometry"/>
                </mxCell>
                <mxCell id="204" value="+ login() : void" style="text;html=1;strokeColor=none;fillColor=none;align=left;verticalAlign=middle;spacingLeft=4;spacingRight=4;overflow=hidden;rotatable=0;points=[[0,0.5],[1,0.5]];portConstraint=eastwest;" parent="40" vertex="1">
                    <mxGeometry y="212" width="470" height="25" as="geometry"/>
                </mxCell>
                <mxCell id="205" value="+ setLoggedUser(nome : String , cognome : String, email : String)" style="text;html=1;strokeColor=none;fillColor=none;align=left;verticalAlign=middle;spacingLeft=4;spacingRight=4;overflow=hidden;rotatable=0;points=[[0,0.5],[1,0.5]];portConstraint=eastwest;" parent="40" vertex="1">
                    <mxGeometry y="237" width="470" height="25" as="geometry"/>
                </mxCell>
                <mxCell id="208" value="-&amp;nbsp;goToSignUpScene() : void" style="text;html=1;strokeColor=none;fillColor=none;align=left;verticalAlign=middle;spacingLeft=4;spacingRight=4;overflow=hidden;rotatable=0;points=[[0,0.5],[1,0.5]];portConstraint=eastwest;" parent="40" vertex="1">
                    <mxGeometry y="262" width="470" height="25" as="geometry"/>
                </mxCell>
                <mxCell id="210" value="-&amp;nbsp;goToHomeScene() : void" style="text;html=1;strokeColor=none;fillColor=none;align=left;verticalAlign=middle;spacingLeft=4;spacingRight=4;overflow=hidden;rotatable=0;points=[[0,0.5],[1,0.5]];portConstraint=eastwest;" parent="40" vertex="1">
                    <mxGeometry y="287" width="470" height="25" as="geometry"/>
                </mxCell>
                <mxCell id="43" value="MainSceneController" style="swimlane;fontStyle=1;align=center;verticalAlign=middle;childLayout=stackLayout;horizontal=1;startSize=29;horizontalStack=0;resizeParent=1;resizeParentMax=0;resizeLast=0;collapsible=0;marginBottom=0;html=1;" parent="1" vertex="1">
                    <mxGeometry x="-1865" y="-1778.5" width="470" height="87" as="geometry"/>
                </mxCell>
                <mxCell id="44" value="" style="line;strokeWidth=1;fillColor=none;align=left;verticalAlign=middle;spacingTop=-1;spacingLeft=3;spacingRight=3;rotatable=0;labelPosition=right;points=[];portConstraint=eastwest;strokeColor=inherit;" parent="43" vertex="1">
                    <mxGeometry y="29" width="470" height="8" as="geometry"/>
                </mxCell>
                <mxCell id="45" value="+ initialize() : void" style="text;html=1;strokeColor=none;fillColor=none;align=left;verticalAlign=middle;spacingLeft=4;spacingRight=4;overflow=hidden;rotatable=0;points=[[0,0.5],[1,0.5]];portConstraint=eastwest;" parent="43" vertex="1">
                    <mxGeometry y="37" width="470" height="25" as="geometry"/>
                </mxCell>
                <mxCell id="219" value="- goToLoginScene() : void" style="text;html=1;strokeColor=none;fillColor=none;align=left;verticalAlign=middle;spacingLeft=4;spacingRight=4;overflow=hidden;rotatable=0;points=[[0,0.5],[1,0.5]];portConstraint=eastwest;" parent="43" vertex="1">
                    <mxGeometry y="62" width="470" height="25" as="geometry"/>
                </mxCell>
                <mxCell id="449" style="edgeStyle=none;html=1;" parent="1" source="46" target="69" edge="1">
                    <mxGeometry relative="1" as="geometry"/>
                </mxCell>
                <mxCell id="450" value="1" style="edgeLabel;html=1;align=center;verticalAlign=middle;resizable=0;points=[];" parent="449" connectable="0" vertex="1">
                    <mxGeometry x="0.9064" y="7" relative="1" as="geometry">
                        <mxPoint y="-2" as="offset"/>
                    </mxGeometry>
                </mxCell>
                <mxCell id="482" style="edgeStyle=none;html=1;" parent="1" source="46" target="79" edge="1">
                    <mxGeometry relative="1" as="geometry"/>
                </mxCell>
                <mxCell id="483" value="*" style="edgeLabel;html=1;align=center;verticalAlign=middle;resizable=0;points=[];" parent="482" connectable="0" vertex="1">
                    <mxGeometry x="0.4575" y="4" relative="1" as="geometry">
                        <mxPoint x="1" as="offset"/>
                    </mxGeometry>
                </mxCell>
                <mxCell id="46" value="MenuController" style="swimlane;fontStyle=1;align=center;verticalAlign=middle;childLayout=stackLayout;horizontal=1;startSize=29;horizontalStack=0;resizeParent=1;resizeParentMax=0;resizeLast=0;collapsible=0;marginBottom=0;html=1;" parent="1" vertex="1">
                    <mxGeometry x="-355" y="244" width="470" height="512" as="geometry"/>
                </mxCell>
                <mxCell id="213" value="- sidebarBtn : ImageView" style="text;html=1;strokeColor=none;fillColor=none;align=left;verticalAlign=middle;spacingLeft=4;spacingRight=4;overflow=hidden;rotatable=0;points=[[0,0.5],[1,0.5]];portConstraint=eastwest;" parent="46" vertex="1">
                    <mxGeometry y="29" width="470" height="25" as="geometry"/>
                </mxCell>
                <mxCell id="212" value="- accountBtn, homeBtn, noticeBtn, menuBtn, personaleBtn, personalizzaBtn : Button" style="text;html=1;strokeColor=none;fillColor=none;align=left;verticalAlign=middle;spacingLeft=4;spacingRight=4;overflow=hidden;rotatable=0;points=[[0,0.5],[1,0.5]];portConstraint=eastwest;" parent="46" vertex="1">
                    <mxGeometry y="54" width="470" height="25" as="geometry"/>
                </mxCell>
                <mxCell id="221" value="- errorLabel : Label" style="text;html=1;strokeColor=none;fillColor=none;align=left;verticalAlign=middle;spacingLeft=4;spacingRight=4;overflow=hidden;rotatable=0;points=[[0,0.5],[1,0.5]];portConstraint=eastwest;" parent="46" vertex="1">
                    <mxGeometry y="79" width="470" height="25" as="geometry"/>
                </mxCell>
                <mxCell id="223" value="- inputField : TextField" style="text;html=1;strokeColor=none;fillColor=none;align=left;verticalAlign=middle;spacingLeft=4;spacingRight=4;overflow=hidden;rotatable=0;points=[[0,0.5],[1,0.5]];portConstraint=eastwest;" parent="46" vertex="1">
                    <mxGeometry y="104" width="470" height="25" as="geometry"/>
                </mxCell>
                <mxCell id="224" value="- filterBtn : Button" style="text;html=1;strokeColor=none;fillColor=none;align=left;verticalAlign=middle;spacingLeft=4;spacingRight=4;overflow=hidden;rotatable=0;points=[[0,0.5],[1,0.5]];portConstraint=eastwest;" parent="46" vertex="1">
                    <mxGeometry y="129" width="470" height="25" as="geometry"/>
                </mxCell>
                <mxCell id="47" value="" style="line;strokeWidth=1;fillColor=none;align=left;verticalAlign=middle;spacingTop=-1;spacingLeft=3;spacingRight=3;rotatable=0;labelPosition=right;points=[];portConstraint=eastwest;strokeColor=inherit;" parent="46" vertex="1">
                    <mxGeometry y="154" width="470" height="8" as="geometry"/>
                </mxCell>
                <mxCell id="48" value="+ initialize() : void" style="text;html=1;strokeColor=none;fillColor=none;align=left;verticalAlign=middle;spacingLeft=4;spacingRight=4;overflow=hidden;rotatable=0;points=[[0,0.5],[1,0.5]];portConstraint=eastwest;" parent="46" vertex="1">
                    <mxGeometry y="162" width="470" height="25" as="geometry"/>
                </mxCell>
                <mxCell id="496" value="+ openMenu() : void" style="text;html=1;strokeColor=none;fillColor=none;align=left;verticalAlign=middle;spacingLeft=4;spacingRight=4;overflow=hidden;rotatable=0;points=[[0,0.5],[1,0.5]];portConstraint=eastwest;" vertex="1" parent="46">
                    <mxGeometry y="187" width="470" height="25" as="geometry"/>
                </mxCell>
                <mxCell id="214" value="+ goToHome/Notice/GestisciPersonale/Personalizza/Account() : void" style="text;html=1;strokeColor=none;fillColor=none;align=left;verticalAlign=middle;spacingLeft=4;spacingRight=4;overflow=hidden;rotatable=0;points=[[0,0.5],[1,0.5]];portConstraint=eastwest;" vertex="1" parent="46">
                    <mxGeometry y="212" width="470" height="25" as="geometry"/>
                </mxCell>
                <mxCell id="215" value="+ showSideBar() : void" style="text;html=1;strokeColor=none;fillColor=none;align=left;verticalAlign=middle;spacingLeft=4;spacingRight=4;overflow=hidden;rotatable=0;points=[[0,0.5],[1,0.5]];portConstraint=eastwest;" parent="46" vertex="1">
                    <mxGeometry y="237" width="470" height="25" as="geometry"/>
                </mxCell>
                <mxCell id="229" value="- searchPiatto() : void" style="text;html=1;strokeColor=none;fillColor=none;align=left;verticalAlign=middle;spacingLeft=4;spacingRight=4;overflow=hidden;rotatable=0;points=[[0,0.5],[1,0.5]];portConstraint=eastwest;" parent="46" vertex="1">
                    <mxGeometry y="262" width="470" height="25" as="geometry"/>
                </mxCell>
                <mxCell id="231" value="- isPresentInResult(nomePiatto : String,piatti : ArrayList&amp;lt;Piatto&amp;gt;) : boolean" style="text;html=1;strokeColor=none;fillColor=none;align=left;verticalAlign=middle;spacingLeft=4;spacingRight=4;overflow=hidden;rotatable=0;points=[[0,0.5],[1,0.5]];portConstraint=eastwest;" parent="46" vertex="1">
                    <mxGeometry y="287" width="470" height="25" as="geometry"/>
                </mxCell>
                <mxCell id="232" value="-&amp;nbsp;goToAggiungiPiatto() : void" style="text;html=1;strokeColor=none;fillColor=none;align=left;verticalAlign=middle;spacingLeft=4;spacingRight=4;overflow=hidden;rotatable=0;points=[[0,0.5],[1,0.5]];portConstraint=eastwest;" parent="46" vertex="1">
                    <mxGeometry y="312" width="470" height="25" as="geometry"/>
                </mxCell>
                <mxCell id="236" value="-&amp;nbsp;goToOrdinaScene() : void" style="text;html=1;strokeColor=none;fillColor=none;align=left;verticalAlign=middle;spacingLeft=4;spacingRight=4;overflow=hidden;rotatable=0;points=[[0,0.5],[1,0.5]];portConstraint=eastwest;" parent="46" vertex="1">
                    <mxGeometry y="337" width="470" height="25" as="geometry"/>
                </mxCell>
                <mxCell id="238" value="-&amp;nbsp;goToHome() : void" style="text;html=1;strokeColor=none;fillColor=none;align=left;verticalAlign=middle;spacingLeft=4;spacingRight=4;overflow=hidden;rotatable=0;points=[[0,0.5],[1,0.5]];portConstraint=eastwest;" parent="46" vertex="1">
                    <mxGeometry y="362" width="470" height="25" as="geometry"/>
                </mxCell>
                <mxCell id="239" value="-&amp;nbsp;generateRightPositionButtons(piatto : Piatto, borderPane BorderPane) : void" style="text;html=1;strokeColor=none;fillColor=none;align=left;verticalAlign=middle;spacingLeft=4;spacingRight=4;overflow=hidden;rotatable=0;points=[[0,0.5],[1,0.5]];portConstraint=eastwest;" parent="46" vertex="1">
                    <mxGeometry y="387" width="470" height="25" as="geometry"/>
                </mxCell>
                <mxCell id="240" value="-&amp;nbsp;generateLeftGarbageButtonNotice(piatto : Piatto, borderPane BorderPane) : void" style="text;html=1;strokeColor=none;fillColor=none;align=left;verticalAlign=middle;spacingLeft=4;spacingRight=4;overflow=hidden;rotatable=0;points=[[0,0.5],[1,0.5]];portConstraint=eastwest;" parent="46" vertex="1">
                    <mxGeometry y="412" width="470" height="25" as="geometry"/>
                </mxCell>
                <mxCell id="242" value="-&amp;nbsp;generateBodyNotice(piatto : Piatto, borderPane BorderPane) : void" style="text;html=1;strokeColor=none;fillColor=none;align=left;verticalAlign=middle;spacingLeft=4;spacingRight=4;overflow=hidden;rotatable=0;points=[[0,0.5],[1,0.5]];portConstraint=eastwest;" parent="46" vertex="1">
                    <mxGeometry y="437" width="470" height="25" as="geometry"/>
                </mxCell>
                <mxCell id="243" value="-&amp;nbsp;generateHeaderNotice(piatto : Piatto, borderPane BorderPane) : void" style="text;html=1;strokeColor=none;fillColor=none;align=left;verticalAlign=middle;spacingLeft=4;spacingRight=4;overflow=hidden;rotatable=0;points=[[0,0.5],[1,0.5]];portConstraint=eastwest;" parent="46" vertex="1">
                    <mxGeometry y="462" width="470" height="25" as="geometry"/>
                </mxCell>
                <mxCell id="245" value="-&amp;nbsp;goToModificaPiattoScene() : void" style="text;html=1;strokeColor=none;fillColor=none;align=left;verticalAlign=middle;spacingLeft=4;spacingRight=4;overflow=hidden;rotatable=0;points=[[0,0.5],[1,0.5]];portConstraint=eastwest;" parent="46" vertex="1">
                    <mxGeometry y="487" width="470" height="25" as="geometry"/>
                </mxCell>
                <mxCell id="453" style="edgeStyle=none;html=1;" parent="1" source="49" target="69" edge="1">
                    <mxGeometry relative="1" as="geometry"/>
                </mxCell>
                <mxCell id="454" value="1" style="edgeLabel;html=1;align=center;verticalAlign=middle;resizable=0;points=[];" parent="453" connectable="0" vertex="1">
                    <mxGeometry x="0.8088" y="6" relative="1" as="geometry">
                        <mxPoint x="1" y="-1" as="offset"/>
                    </mxGeometry>
                </mxCell>
                <mxCell id="475" style="edgeStyle=none;html=1;" parent="1" source="49" target="77" edge="1">
                    <mxGeometry relative="1" as="geometry"/>
                </mxCell>
                <mxCell id="476" value="*" style="edgeLabel;html=1;align=center;verticalAlign=middle;resizable=0;points=[];" parent="475" connectable="0" vertex="1">
                    <mxGeometry x="0.6699" y="3" relative="1" as="geometry">
                        <mxPoint y="-1" as="offset"/>
                    </mxGeometry>
                </mxCell>
                <mxCell id="49" value="ModificaCreaPiattoController" style="swimlane;fontStyle=1;align=center;verticalAlign=middle;childLayout=stackLayout;horizontal=1;startSize=29;horizontalStack=0;resizeParent=1;resizeParentMax=0;resizeLast=0;collapsible=0;marginBottom=0;html=1;" parent="1" vertex="1">
                    <mxGeometry x="-20" y="891" width="620" height="262" as="geometry"/>
                </mxCell>
                <mxCell id="250" value="- errorLabel : Label" style="text;html=1;strokeColor=none;fillColor=none;align=left;verticalAlign=middle;spacingLeft=4;spacingRight=4;overflow=hidden;rotatable=0;points=[[0,0.5],[1,0.5]];portConstraint=eastwest;" parent="49" vertex="1">
                    <mxGeometry y="29" width="620" height="25" as="geometry"/>
                </mxCell>
                <mxCell id="251" value="- descrizioneInput, descrizioneSecondaLinguaInput : TextArea" style="text;html=1;strokeColor=none;fillColor=none;align=left;verticalAlign=middle;spacingLeft=4;spacingRight=4;overflow=hidden;rotatable=0;points=[[0,0.5],[1,0.5]];portConstraint=eastwest;" parent="49" vertex="1">
                    <mxGeometry y="54" width="620" height="25" as="geometry"/>
                </mxCell>
                <mxCell id="255" value="- categoriaInput : Combobox&amp;lt;String&amp;gt;" style="text;html=1;strokeColor=none;fillColor=none;align=left;verticalAlign=middle;spacingLeft=4;spacingRight=4;overflow=hidden;rotatable=0;points=[[0,0.5],[1,0.5]];portConstraint=eastwest;" parent="49" vertex="1">
                    <mxGeometry y="79" width="620" height="25" as="geometry"/>
                </mxCell>
                <mxCell id="260" value="- btnSalvaCambiament, autocompletamentoBtn : Buttoni" style="text;html=1;strokeColor=none;fillColor=none;align=left;verticalAlign=middle;spacingLeft=4;spacingRight=4;overflow=hidden;rotatable=0;points=[[0,0.5],[1,0.5]];portConstraint=eastwest;" parent="49" vertex="1">
                    <mxGeometry y="104" width="620" height="25" as="geometry"/>
                </mxCell>
                <mxCell id="252" value="- nomePiattoInput, nomePattoAuto, costoInput, allergeniInput, secondaLinguaInput, nomeSecondaLinguaInput" style="text;html=1;strokeColor=none;fillColor=none;align=left;verticalAlign=middle;spacingLeft=4;spacingRight=4;overflow=hidden;rotatable=0;points=[[0,0.5],[1,0.5]];portConstraint=eastwest;" parent="49" vertex="1">
                    <mxGeometry y="129" width="620" height="25" as="geometry"/>
                </mxCell>
                <mxCell id="50" value="" style="line;strokeWidth=1;fillColor=none;align=left;verticalAlign=middle;spacingTop=-1;spacingLeft=3;spacingRight=3;rotatable=0;labelPosition=right;points=[];portConstraint=eastwest;strokeColor=inherit;" parent="49" vertex="1">
                    <mxGeometry y="154" width="620" height="8" as="geometry"/>
                </mxCell>
                <mxCell id="51" value="+ initialize() : void" style="text;html=1;strokeColor=none;fillColor=none;align=left;verticalAlign=middle;spacingLeft=4;spacingRight=4;overflow=hidden;rotatable=0;points=[[0,0.5],[1,0.5]];portConstraint=eastwest;" parent="49" vertex="1">
                    <mxGeometry y="162" width="620" height="25" as="geometry"/>
                </mxCell>
                <mxCell id="498" value="+ openModificaCreaPiattoController() : void" style="text;html=1;strokeColor=none;fillColor=none;align=left;verticalAlign=middle;spacingLeft=4;spacingRight=4;overflow=hidden;rotatable=0;points=[[0,0.5],[1,0.5]];portConstraint=eastwest;" vertex="1" parent="49">
                    <mxGeometry y="187" width="620" height="25" as="geometry"/>
                </mxCell>
                <mxCell id="265" value="- backToMenu() : void" style="text;html=1;strokeColor=none;fillColor=none;align=left;verticalAlign=middle;spacingLeft=4;spacingRight=4;overflow=hidden;rotatable=0;points=[[0,0.5],[1,0.5]];portConstraint=eastwest;" parent="49" vertex="1">
                    <mxGeometry y="212" width="620" height="25" as="geometry"/>
                </mxCell>
                <mxCell id="266" value="- salvaPiatto() : void" style="text;html=1;strokeColor=none;fillColor=none;align=left;verticalAlign=middle;spacingLeft=4;spacingRight=4;overflow=hidden;rotatable=0;points=[[0,0.5],[1,0.5]];portConstraint=eastwest;" parent="49" vertex="1">
                    <mxGeometry y="237" width="620" height="25" as="geometry"/>
                </mxCell>
                <mxCell id="451" style="edgeStyle=none;html=1;" parent="1" source="52" target="69" edge="1">
                    <mxGeometry relative="1" as="geometry"/>
                </mxCell>
                <mxCell id="452" value="1" style="edgeLabel;html=1;align=center;verticalAlign=middle;resizable=0;points=[];" parent="451" connectable="0" vertex="1">
                    <mxGeometry x="0.784" y="1" relative="1" as="geometry">
                        <mxPoint y="1" as="offset"/>
                    </mxGeometry>
                </mxCell>
                <mxCell id="468" style="edgeStyle=none;html=1;" parent="1" source="52" target="79" edge="1">
                    <mxGeometry relative="1" as="geometry"/>
                </mxCell>
                <mxCell id="470" value="*" style="edgeLabel;html=1;align=center;verticalAlign=middle;resizable=0;points=[];" parent="468" connectable="0" vertex="1">
                    <mxGeometry x="0.8773" y="1" relative="1" as="geometry">
                        <mxPoint as="offset"/>
                    </mxGeometry>
                </mxCell>
                <mxCell id="471" style="edgeStyle=none;html=1;" parent="1" source="52" target="77" edge="1">
                    <mxGeometry relative="1" as="geometry"/>
                </mxCell>
                <mxCell id="472" value="*" style="edgeLabel;html=1;align=center;verticalAlign=middle;resizable=0;points=[];" parent="471" connectable="0" vertex="1">
                    <mxGeometry x="0.8673" y="1" relative="1" as="geometry">
                        <mxPoint as="offset"/>
                    </mxGeometry>
                </mxCell>
                <mxCell id="52" value="OrdinaMenuController" style="swimlane;fontStyle=1;align=center;verticalAlign=middle;childLayout=stackLayout;horizontal=1;startSize=29;horizontalStack=0;resizeParent=1;resizeParentMax=0;resizeLast=0;collapsible=0;marginBottom=0;html=1;" parent="1" vertex="1">
                    <mxGeometry x="-711" y="906" width="470" height="287" as="geometry"/>
                </mxCell>
                <mxCell id="301" value="- comboboxInput : ComboBox&amp;lt;String&amp;gt;" style="text;html=1;strokeColor=none;fillColor=none;align=left;verticalAlign=middle;spacingLeft=4;spacingRight=4;overflow=hidden;rotatable=0;points=[[0,0.5],[1,0.5]];portConstraint=eastwest;" parent="52" vertex="1">
                    <mxGeometry y="29" width="470" height="25" as="geometry"/>
                </mxCell>
                <mxCell id="303" value="- errorLabel, nomeCategoriaAttuale: Label&amp;nbsp;" style="text;html=1;strokeColor=none;fillColor=none;align=left;verticalAlign=middle;spacingLeft=4;spacingRight=4;overflow=hidden;rotatable=0;points=[[0,0.5],[1,0.5]];portConstraint=eastwest;" parent="52" vertex="1">
                    <mxGeometry y="54" width="470" height="25" as="geometry"/>
                </mxCell>
                <mxCell id="305" value="- aggiungiBtn, categoriaSuccessivaBtn, categoriaPrecedenteBtn, resetBtn : Button" style="text;html=1;strokeColor=none;fillColor=none;align=left;verticalAlign=middle;spacingLeft=4;spacingRight=4;overflow=hidden;rotatable=0;points=[[0,0.5],[1,0.5]];portConstraint=eastwest;" parent="52" vertex="1">
                    <mxGeometry y="79" width="470" height="25" as="geometry"/>
                </mxCell>
                <mxCell id="53" value="" style="line;strokeWidth=1;fillColor=none;align=left;verticalAlign=middle;spacingTop=-1;spacingLeft=3;spacingRight=3;rotatable=0;labelPosition=right;points=[];portConstraint=eastwest;strokeColor=inherit;" parent="52" vertex="1">
                    <mxGeometry y="104" width="470" height="8" as="geometry"/>
                </mxCell>
                <mxCell id="54" value="+ initialize() : void" style="text;html=1;strokeColor=none;fillColor=none;align=left;verticalAlign=middle;spacingLeft=4;spacingRight=4;overflow=hidden;rotatable=0;points=[[0,0.5],[1,0.5]];portConstraint=eastwest;" parent="52" vertex="1">
                    <mxGeometry y="112" width="470" height="25" as="geometry"/>
                </mxCell>
                <mxCell id="500" value="+ openOrdinaMenuController() : void" style="text;html=1;strokeColor=none;fillColor=none;align=left;verticalAlign=middle;spacingLeft=4;spacingRight=4;overflow=hidden;rotatable=0;points=[[0,0.5],[1,0.5]];portConstraint=eastwest;" vertex="1" parent="52">
                    <mxGeometry y="137" width="470" height="25" as="geometry"/>
                </mxCell>
                <mxCell id="308" value="- generatePiattoChooseCombobox() : void" style="text;html=1;strokeColor=none;fillColor=none;align=left;verticalAlign=middle;spacingLeft=4;spacingRight=4;overflow=hidden;rotatable=0;points=[[0,0.5],[1,0.5]];portConstraint=eastwest;" parent="52" vertex="1">
                    <mxGeometry y="162" width="470" height="25" as="geometry"/>
                </mxCell>
                <mxCell id="307" value="- generateInputStrucutureForSortOfMenu() : void" style="text;html=1;strokeColor=none;fillColor=none;align=left;verticalAlign=middle;spacingLeft=4;spacingRight=4;overflow=hidden;rotatable=0;points=[[0,0.5],[1,0.5]];portConstraint=eastwest;" parent="52" vertex="1">
                    <mxGeometry y="187" width="470" height="25" as="geometry"/>
                </mxCell>
                <mxCell id="309" value="- removeFromListPiatto(piattoScelto :&amp;nbsp;String, piatti :&amp;nbsp;List&amp;lt;Piatto&amp;gt; ) : void" style="text;html=1;strokeColor=none;fillColor=none;align=left;verticalAlign=middle;spacingLeft=4;spacingRight=4;overflow=hidden;rotatable=0;points=[[0,0.5],[1,0.5]];portConstraint=eastwest;" parent="52" vertex="1">
                    <mxGeometry y="212" width="470" height="25" as="geometry"/>
                </mxCell>
                <mxCell id="312" value="- fillPiattiOfCategoria(categoriaScelta :&amp;nbsp;String) : void" style="text;html=1;strokeColor=none;fillColor=none;align=left;verticalAlign=middle;spacingLeft=4;spacingRight=4;overflow=hidden;rotatable=0;points=[[0,0.5],[1,0.5]];portConstraint=eastwest;" parent="52" vertex="1">
                    <mxGeometry y="237" width="470" height="25" as="geometry"/>
                </mxCell>
                <mxCell id="311" value="- removeFromListCategoria(categoriaScelta :&amp;nbsp;String,categorie :&amp;nbsp;List&amp;lt;CategoriaMenu&amp;gt;) : void" style="text;html=1;strokeColor=none;fillColor=none;align=left;verticalAlign=middle;spacingLeft=4;spacingRight=4;overflow=hidden;rotatable=0;points=[[0,0.5],[1,0.5]];portConstraint=eastwest;" parent="52" vertex="1">
                    <mxGeometry y="262" width="470" height="25" as="geometry"/>
                </mxCell>
                <mxCell id="460" style="edgeStyle=none;html=1;" parent="1" source="55" target="67" edge="1">
                    <mxGeometry relative="1" as="geometry"/>
                </mxCell>
                <mxCell id="463" value="1" style="edgeLabel;html=1;align=center;verticalAlign=middle;resizable=0;points=[];" parent="460" connectable="0" vertex="1">
                    <mxGeometry x="0.6889" y="-4" relative="1" as="geometry">
                        <mxPoint as="offset"/>
                    </mxGeometry>
                </mxCell>
                <mxCell id="55" value="PersonalizzazioneAttivitaController" style="swimlane;fontStyle=1;align=center;verticalAlign=middle;childLayout=stackLayout;horizontal=1;startSize=29;horizontalStack=0;resizeParent=1;resizeParentMax=0;resizeLast=0;collapsible=0;marginBottom=0;html=1;" parent="1" vertex="1">
                    <mxGeometry x="-1451" y="102" width="490" height="362" as="geometry"/>
                </mxCell>
                <mxCell id="318" value="- accountBtn, homeBtn, noticeBtn, menuBtn, personaleBtn, personalizzaBtn : Button" style="text;html=1;strokeColor=none;fillColor=none;align=left;verticalAlign=middle;spacingLeft=4;spacingRight=4;overflow=hidden;rotatable=0;points=[[0,0.5],[1,0.5]];portConstraint=eastwest;" parent="55" vertex="1">
                    <mxGeometry y="29" width="490" height="25" as="geometry"/>
                </mxCell>
                <mxCell id="317" value="- sidebarBtn : ImageView" style="text;html=1;strokeColor=none;fillColor=none;align=left;verticalAlign=middle;spacingLeft=4;spacingRight=4;overflow=hidden;rotatable=0;points=[[0,0.5],[1,0.5]];portConstraint=eastwest;" parent="55" vertex="1">
                    <mxGeometry y="54" width="490" height="25" as="geometry"/>
                </mxCell>
                <mxCell id="325" value="- nomeInput, indirizzoInput, telefonoInput: TextField" style="text;html=1;strokeColor=none;fillColor=none;align=left;verticalAlign=middle;spacingLeft=4;spacingRight=4;overflow=hidden;rotatable=0;points=[[0,0.5],[1,0.5]];portConstraint=eastwest;" parent="55" vertex="1">
                    <mxGeometry y="79" width="490" height="25" as="geometry"/>
                </mxCell>
                <mxCell id="327" value="- salvaBtn : Button" style="text;html=1;strokeColor=none;fillColor=none;align=left;verticalAlign=middle;spacingLeft=4;spacingRight=4;overflow=hidden;rotatable=0;points=[[0,0.5],[1,0.5]];portConstraint=eastwest;" parent="55" vertex="1">
                    <mxGeometry y="104" width="490" height="25" as="geometry"/>
                </mxCell>
                <mxCell id="328" value="- logoInputView : ImageView" style="text;html=1;strokeColor=none;fillColor=none;align=left;verticalAlign=middle;spacingLeft=4;spacingRight=4;overflow=hidden;rotatable=0;points=[[0,0.5],[1,0.5]];portConstraint=eastwest;" parent="55" vertex="1">
                    <mxGeometry y="129" width="490" height="25" as="geometry"/>
                </mxCell>
                <mxCell id="329" value="- errorLabel : Label" style="text;html=1;strokeColor=none;fillColor=none;align=left;verticalAlign=middle;spacingLeft=4;spacingRight=4;overflow=hidden;rotatable=0;points=[[0,0.5],[1,0.5]];portConstraint=eastwest;" parent="55" vertex="1">
                    <mxGeometry y="154" width="490" height="25" as="geometry"/>
                </mxCell>
                <mxCell id="56" value="" style="line;strokeWidth=1;fillColor=none;align=left;verticalAlign=middle;spacingTop=-1;spacingLeft=3;spacingRight=3;rotatable=0;labelPosition=right;points=[];portConstraint=eastwest;strokeColor=inherit;" parent="55" vertex="1">
                    <mxGeometry y="179" width="490" height="8" as="geometry"/>
                </mxCell>
                <mxCell id="57" value="+ initialize() : void" style="text;html=1;strokeColor=none;fillColor=none;align=left;verticalAlign=middle;spacingLeft=4;spacingRight=4;overflow=hidden;rotatable=0;points=[[0,0.5],[1,0.5]];portConstraint=eastwest;" parent="55" vertex="1">
                    <mxGeometry y="187" width="490" height="25" as="geometry"/>
                </mxCell>
                <mxCell id="319" value="+ openPersonalizzaController() : void" style="text;html=1;strokeColor=none;fillColor=none;align=left;verticalAlign=middle;spacingLeft=4;spacingRight=4;overflow=hidden;rotatable=0;points=[[0,0.5],[1,0.5]];portConstraint=eastwest;" parent="55" vertex="1">
                    <mxGeometry y="212" width="490" height="25" as="geometry"/>
                </mxCell>
                <mxCell id="499" value="+ goToHome/Notice/GestisciPersonale/Personalizza/Account() : void" style="text;html=1;strokeColor=none;fillColor=none;align=left;verticalAlign=middle;spacingLeft=4;spacingRight=4;overflow=hidden;rotatable=0;points=[[0,0.5],[1,0.5]];portConstraint=eastwest;" vertex="1" parent="55">
                    <mxGeometry y="237" width="490" height="25" as="geometry"/>
                </mxCell>
                <mxCell id="320" value="+ showSideBar() : void" style="text;html=1;strokeColor=none;fillColor=none;align=left;verticalAlign=middle;spacingLeft=4;spacingRight=4;overflow=hidden;rotatable=0;points=[[0,0.5],[1,0.5]];portConstraint=eastwest;" parent="55" vertex="1">
                    <mxGeometry y="262" width="490" height="25" as="geometry"/>
                </mxCell>
                <mxCell id="330" value="- mostraDatiRistorante() : void" style="text;html=1;strokeColor=none;fillColor=none;align=left;verticalAlign=middle;spacingLeft=4;spacingRight=4;overflow=hidden;rotatable=0;points=[[0,0.5],[1,0.5]];portConstraint=eastwest;" parent="55" vertex="1">
                    <mxGeometry y="287" width="490" height="25" as="geometry"/>
                </mxCell>
                <mxCell id="331" value="+ caricaLogo() : void" style="text;html=1;strokeColor=none;fillColor=none;align=left;verticalAlign=middle;spacingLeft=4;spacingRight=4;overflow=hidden;rotatable=0;points=[[0,0.5],[1,0.5]];portConstraint=eastwest;" parent="55" vertex="1">
                    <mxGeometry y="312" width="490" height="25" as="geometry"/>
                </mxCell>
                <mxCell id="333" value="+ modificaDati() : void" style="text;html=1;strokeColor=none;fillColor=none;align=left;verticalAlign=middle;spacingLeft=4;spacingRight=4;overflow=hidden;rotatable=0;points=[[0,0.5],[1,0.5]];portConstraint=eastwest;" parent="55" vertex="1">
                    <mxGeometry y="337" width="490" height="25" as="geometry"/>
                </mxCell>
                <mxCell id="438" style="edgeStyle=none;html=1;" parent="1" source="58" target="71" edge="1">
                    <mxGeometry relative="1" as="geometry"/>
                </mxCell>
                <mxCell id="439" value="1" style="edgeLabel;html=1;align=center;verticalAlign=middle;resizable=0;points=[];" parent="438" connectable="0" vertex="1">
                    <mxGeometry x="0.6973" y="-1" relative="1" as="geometry">
                        <mxPoint as="offset"/>
                    </mxGeometry>
                </mxCell>
                <mxCell id="58" value="RisorseUmaneController" style="swimlane;fontStyle=1;align=center;verticalAlign=middle;childLayout=stackLayout;horizontal=1;startSize=29;horizontalStack=0;resizeParent=1;resizeParentMax=0;resizeLast=0;collapsible=0;marginBottom=0;html=1;" parent="1" vertex="1">
                    <mxGeometry x="-879" y="-607" width="540" height="362" as="geometry"/>
                </mxCell>
                <mxCell id="336" value="- accountBtn, homeBtn, noticeBtn, menuBtn, personaleBtn, personalizzaBtn : Button" style="text;html=1;strokeColor=none;fillColor=none;align=left;verticalAlign=middle;spacingLeft=4;spacingRight=4;overflow=hidden;rotatable=0;points=[[0,0.5],[1,0.5]];portConstraint=eastwest;" parent="58" vertex="1">
                    <mxGeometry y="29" width="540" height="25" as="geometry"/>
                </mxCell>
                <mxCell id="337" value="- sidebarBtn : ImageView" style="text;html=1;strokeColor=none;fillColor=none;align=left;verticalAlign=middle;spacingLeft=4;spacingRight=4;overflow=hidden;rotatable=0;points=[[0,0.5],[1,0.5]];portConstraint=eastwest;" parent="58" vertex="1">
                    <mxGeometry y="54" width="540" height="25" as="geometry"/>
                </mxCell>
                <mxCell id="341" value="- nomeInput, cognomeInput, emailInput, passwordInput : TextFiled" style="text;html=1;strokeColor=none;fillColor=none;align=left;verticalAlign=middle;spacingLeft=4;spacingRight=4;overflow=hidden;rotatable=0;points=[[0,0.5],[1,0.5]];portConstraint=eastwest;" parent="58" vertex="1">
                    <mxGeometry y="79" width="540" height="25" as="geometry"/>
                </mxCell>
                <mxCell id="342" value="- ruoloInput : ToggleButtonGroup" style="text;html=1;strokeColor=none;fillColor=none;align=left;verticalAlign=middle;spacingLeft=4;spacingRight=4;overflow=hidden;rotatable=0;points=[[0,0.5],[1,0.5]];portConstraint=eastwest;" parent="58" vertex="1">
                    <mxGeometry y="104" width="540" height="25" as="geometry"/>
                </mxCell>
                <mxCell id="343" value="- invioBtn : Button" style="text;html=1;strokeColor=none;fillColor=none;align=left;verticalAlign=middle;spacingLeft=4;spacingRight=4;overflow=hidden;rotatable=0;points=[[0,0.5],[1,0.5]];portConstraint=eastwest;" parent="58" vertex="1">
                    <mxGeometry y="129" width="540" height="25" as="geometry"/>
                </mxCell>
                <mxCell id="344" value="- errorLabel: Label" style="text;html=1;strokeColor=none;fillColor=none;align=left;verticalAlign=middle;spacingLeft=4;spacingRight=4;overflow=hidden;rotatable=0;points=[[0,0.5],[1,0.5]];portConstraint=eastwest;" parent="58" vertex="1">
                    <mxGeometry y="154" width="540" height="25" as="geometry"/>
                </mxCell>
                <mxCell id="345" value="- supervisoreRBtn, addettoSalaRBtn, addettoCucinaRBtn: RadioButton" style="text;html=1;strokeColor=none;fillColor=none;align=left;verticalAlign=middle;spacingLeft=4;spacingRight=4;overflow=hidden;rotatable=0;points=[[0,0.5],[1,0.5]];portConstraint=eastwest;" parent="58" vertex="1">
                    <mxGeometry y="179" width="540" height="25" as="geometry"/>
                </mxCell>
                <mxCell id="346" value="- dataNascitaInput: DatePicker" style="text;html=1;strokeColor=none;fillColor=none;align=left;verticalAlign=middle;spacingLeft=4;spacingRight=4;overflow=hidden;rotatable=0;points=[[0,0.5],[1,0.5]];portConstraint=eastwest;" parent="58" vertex="1">
                    <mxGeometry y="204" width="540" height="25" as="geometry"/>
                </mxCell>
                <mxCell id="59" value="" style="line;strokeWidth=1;fillColor=none;align=left;verticalAlign=middle;spacingTop=-1;spacingLeft=3;spacingRight=3;rotatable=0;labelPosition=right;points=[];portConstraint=eastwest;strokeColor=inherit;" parent="58" vertex="1">
                    <mxGeometry y="229" width="540" height="8" as="geometry"/>
                </mxCell>
                <mxCell id="338" value="+ goToHome/Notice/GestisciPersonale/Personalizza/Account() : void" style="text;html=1;strokeColor=none;fillColor=none;align=left;verticalAlign=middle;spacingLeft=4;spacingRight=4;overflow=hidden;rotatable=0;points=[[0,0.5],[1,0.5]];portConstraint=eastwest;" parent="58" vertex="1">
                    <mxGeometry y="237" width="540" height="25" as="geometry"/>
                </mxCell>
                <mxCell id="339" value="+ showSideBar() : void" style="text;html=1;strokeColor=none;fillColor=none;align=left;verticalAlign=middle;spacingLeft=4;spacingRight=4;overflow=hidden;rotatable=0;points=[[0,0.5],[1,0.5]];portConstraint=eastwest;" parent="58" vertex="1">
                    <mxGeometry y="262" width="540" height="25" as="geometry"/>
                </mxCell>
                <mxCell id="60" value="+ initialize() : void" style="text;html=1;strokeColor=none;fillColor=none;align=left;verticalAlign=middle;spacingLeft=4;spacingRight=4;overflow=hidden;rotatable=0;points=[[0,0.5],[1,0.5]];portConstraint=eastwest;" parent="58" vertex="1">
                    <mxGeometry y="287" width="540" height="25" as="geometry"/>
                </mxCell>
                <mxCell id="490" value="+ openRisorseUmane(): void" style="text;html=1;strokeColor=none;fillColor=none;align=left;verticalAlign=middle;spacingLeft=4;spacingRight=4;overflow=hidden;rotatable=0;points=[[0,0.5],[1,0.5]];portConstraint=eastwest;" vertex="1" parent="58">
                    <mxGeometry y="312" width="540" height="25" as="geometry"/>
                </mxCell>
                <mxCell id="349" value="+ creaNuovoImpiegato() : void" style="text;html=1;strokeColor=none;fillColor=none;align=left;verticalAlign=middle;spacingLeft=4;spacingRight=4;overflow=hidden;rotatable=0;points=[[0,0.5],[1,0.5]];portConstraint=eastwest;" parent="58" vertex="1">
                    <mxGeometry y="337" width="540" height="25" as="geometry"/>
                </mxCell>
                <mxCell id="442" style="edgeStyle=none;html=1;" parent="1" source="61" target="71" edge="1">
                    <mxGeometry relative="1" as="geometry"/>
                </mxCell>
                <mxCell id="443" value="1" style="edgeLabel;html=1;align=center;verticalAlign=middle;resizable=0;points=[];" parent="442" connectable="0" vertex="1">
                    <mxGeometry x="0.3967" y="1" relative="1" as="geometry">
                        <mxPoint y="1" as="offset"/>
                    </mxGeometry>
                </mxCell>
                <mxCell id="61" value="SignUpController" style="swimlane;fontStyle=1;align=center;verticalAlign=middle;childLayout=stackLayout;horizontal=1;startSize=29;horizontalStack=0;resizeParent=1;resizeParentMax=0;resizeLast=0;collapsible=0;marginBottom=0;html=1;" parent="1" vertex="1">
                    <mxGeometry x="171" y="-1399" width="290" height="362" as="geometry"/>
                </mxCell>
                <mxCell id="306" value="- nomeField: TextField" style="text;html=1;strokeColor=none;fillColor=none;align=left;verticalAlign=middle;spacingLeft=4;spacingRight=4;overflow=hidden;rotatable=0;points=[[0,0.5],[1,0.5]];portConstraint=eastwest;" parent="61" vertex="1">
                    <mxGeometry y="29" width="290" height="25" as="geometry"/>
                </mxCell>
                <mxCell id="313" value="- passwordField: TextField" style="text;html=1;strokeColor=none;fillColor=none;align=left;verticalAlign=middle;spacingLeft=4;spacingRight=4;overflow=hidden;rotatable=0;points=[[0,0.5],[1,0.5]];portConstraint=eastwest;" parent="61" vertex="1">
                    <mxGeometry y="54" width="290" height="25" as="geometry"/>
                </mxCell>
                <mxCell id="310" value="- dataNascitaField: TextField" style="text;html=1;strokeColor=none;fillColor=none;align=left;verticalAlign=middle;spacingLeft=4;spacingRight=4;overflow=hidden;rotatable=0;points=[[0,0.5],[1,0.5]];portConstraint=eastwest;" parent="61" vertex="1">
                    <mxGeometry y="79" width="290" height="25" as="geometry"/>
                </mxCell>
                <mxCell id="314" value="- cognomeField: TextField" style="text;html=1;strokeColor=none;fillColor=none;align=left;verticalAlign=middle;spacingLeft=4;spacingRight=4;overflow=hidden;rotatable=0;points=[[0,0.5],[1,0.5]];portConstraint=eastwest;" parent="61" vertex="1">
                    <mxGeometry y="104" width="290" height="25" as="geometry"/>
                </mxCell>
                <mxCell id="315" value="- emailField: TextField" style="text;html=1;strokeColor=none;fillColor=none;align=left;verticalAlign=middle;spacingLeft=4;spacingRight=4;overflow=hidden;rotatable=0;points=[[0,0.5],[1,0.5]];portConstraint=eastwest;" parent="61" vertex="1">
                    <mxGeometry y="129" width="290" height="25" as="geometry"/>
                </mxCell>
                <mxCell id="321" value="- nomeAttivitaField: TextField" style="text;html=1;strokeColor=none;fillColor=none;align=left;verticalAlign=middle;spacingLeft=4;spacingRight=4;overflow=hidden;rotatable=0;points=[[0,0.5],[1,0.5]];portConstraint=eastwest;" parent="61" vertex="1">
                    <mxGeometry y="154" width="290" height="25" as="geometry"/>
                </mxCell>
                <mxCell id="322" value="- login: Label" style="text;html=1;strokeColor=none;fillColor=none;align=left;verticalAlign=middle;spacingLeft=4;spacingRight=4;overflow=hidden;rotatable=0;points=[[0,0.5],[1,0.5]];portConstraint=eastwest;" parent="61" vertex="1">
                    <mxGeometry y="179" width="290" height="25" as="geometry"/>
                </mxCell>
                <mxCell id="324" value="- errorLabel: Label" style="text;html=1;strokeColor=none;fillColor=none;align=left;verticalAlign=middle;spacingLeft=4;spacingRight=4;overflow=hidden;rotatable=0;points=[[0,0.5],[1,0.5]];portConstraint=eastwest;" parent="61" vertex="1">
                    <mxGeometry y="204" width="290" height="25" as="geometry"/>
                </mxCell>
                <mxCell id="326" value="- signUpButton: Button" style="text;html=1;strokeColor=none;fillColor=none;align=left;verticalAlign=middle;spacingLeft=4;spacingRight=4;overflow=hidden;rotatable=0;points=[[0,0.5],[1,0.5]];portConstraint=eastwest;" parent="61" vertex="1">
                    <mxGeometry y="229" width="290" height="25" as="geometry"/>
                </mxCell>
                <mxCell id="62" value="" style="line;strokeWidth=1;fillColor=none;align=left;verticalAlign=middle;spacingTop=-1;spacingLeft=3;spacingRight=3;rotatable=0;labelPosition=right;points=[];portConstraint=eastwest;strokeColor=inherit;" parent="61" vertex="1">
                    <mxGeometry y="254" width="290" height="8" as="geometry"/>
                </mxCell>
                <mxCell id="63" value="+ initialize() : void" style="text;html=1;strokeColor=none;fillColor=none;align=left;verticalAlign=middle;spacingLeft=4;spacingRight=4;overflow=hidden;rotatable=0;points=[[0,0.5],[1,0.5]];portConstraint=eastwest;" parent="61" vertex="1">
                    <mxGeometry y="262" width="290" height="25" as="geometry"/>
                </mxCell>
                <mxCell id="489" value="+ openSignup() : void" style="text;html=1;strokeColor=none;fillColor=none;align=left;verticalAlign=middle;spacingLeft=4;spacingRight=4;overflow=hidden;rotatable=0;points=[[0,0.5],[1,0.5]];portConstraint=eastwest;" vertex="1" parent="61">
                    <mxGeometry y="287" width="290" height="25" as="geometry"/>
                </mxCell>
                <mxCell id="332" value="+ goToLoginScene(): void" style="text;html=1;strokeColor=none;fillColor=none;align=left;verticalAlign=middle;spacingLeft=4;spacingRight=4;overflow=hidden;rotatable=0;points=[[0,0.5],[1,0.5]];portConstraint=eastwest;" parent="61" vertex="1">
                    <mxGeometry y="312" width="290" height="25" as="geometry"/>
                </mxCell>
                <mxCell id="334" value="+ signup(): void" style="text;html=1;strokeColor=none;fillColor=none;align=left;verticalAlign=middle;spacingLeft=4;spacingRight=4;overflow=hidden;rotatable=0;points=[[0,0.5],[1,0.5]];portConstraint=eastwest;" parent="61" vertex="1">
                    <mxGeometry y="337" width="290" height="25" as="geometry"/>
                </mxCell>
                <mxCell id="466" style="edgeStyle=none;html=1;" parent="1" source="64" target="73" edge="1">
                    <mxGeometry relative="1" as="geometry"/>
                </mxCell>
                <mxCell id="467" value="1" style="edgeLabel;html=1;align=center;verticalAlign=middle;resizable=0;points=[];" parent="466" connectable="0" vertex="1">
                    <mxGeometry x="0.7592" y="3" relative="1" as="geometry">
                        <mxPoint as="offset"/>
                    </mxGeometry>
                </mxCell>
                <mxCell id="64" value="AvvisiDriver" style="swimlane;fontStyle=1;align=center;verticalAlign=middle;childLayout=stackLayout;horizontal=1;startSize=29;horizontalStack=0;resizeParent=1;resizeParentMax=0;resizeLast=0;collapsible=0;marginBottom=0;html=1;" parent="1" vertex="1">
                    <mxGeometry x="770" y="636" width="691" height="137" as="geometry"/>
                </mxCell>
                <mxCell id="237" value="- loggedUser: Utente" style="text;html=1;strokeColor=none;fillColor=none;align=left;verticalAlign=middle;spacingLeft=4;spacingRight=4;overflow=hidden;rotatable=0;points=[[0,0.5],[1,0.5]];portConstraint=eastwest;" parent="64" vertex="1">
                    <mxGeometry y="29" width="691" height="25" as="geometry"/>
                </mxCell>
                <mxCell id="65" value="" style="line;strokeWidth=1;fillColor=none;align=left;verticalAlign=middle;spacingTop=-1;spacingLeft=3;spacingRight=3;rotatable=0;labelPosition=right;points=[];portConstraint=eastwest;strokeColor=inherit;" parent="64" vertex="1">
                    <mxGeometry y="54" width="691" height="8" as="geometry"/>
                </mxCell>
                <mxCell id="234" value="+ requestAvvisiFromServer(avvisiController AvvisiController): void" style="text;html=1;strokeColor=none;fillColor=none;align=left;verticalAlign=middle;spacingLeft=4;spacingRight=4;overflow=hidden;rotatable=0;points=[[0,0.5],[1,0.5]];portConstraint=eastwest;" parent="64" vertex="1">
                    <mxGeometry y="62" width="691" height="25" as="geometry"/>
                </mxCell>
                <mxCell id="241" value="+ requestScriviAvvisiFromServer(avvisiController AvvisiController, testo: String): void" style="text;html=1;strokeColor=none;fillColor=none;align=left;verticalAlign=middle;spacingLeft=4;spacingRight=4;overflow=hidden;rotatable=0;points=[[0,0.5],[1,0.5]];portConstraint=eastwest;" parent="64" vertex="1">
                    <mxGeometry y="87" width="691" height="25" as="geometry"/>
                </mxCell>
                <mxCell id="244" value="+ requestDeleteAvvisoFromServer(idAvviso: Integer): void" style="text;html=1;strokeColor=none;fillColor=none;align=left;verticalAlign=middle;spacingLeft=4;spacingRight=4;overflow=hidden;rotatable=0;points=[[0,0.5],[1,0.5]];portConstraint=eastwest;" parent="64" vertex="1">
                    <mxGeometry y="112" width="691" height="25" as="geometry"/>
                </mxCell>
                <mxCell id="477" style="edgeStyle=none;html=1;" parent="1" source="67" target="75" edge="1">
                    <mxGeometry relative="1" as="geometry"/>
                </mxCell>
                <mxCell id="478" value="1" style="edgeLabel;html=1;align=center;verticalAlign=middle;resizable=0;points=[];" parent="477" connectable="0" vertex="1">
                    <mxGeometry x="0.6767" y="1" relative="1" as="geometry">
                        <mxPoint as="offset"/>
                    </mxGeometry>
                </mxCell>
                <mxCell id="67" value="BusinessDriver" style="swimlane;fontStyle=1;align=center;verticalAlign=middle;childLayout=stackLayout;horizontal=1;startSize=29;horizontalStack=0;resizeParent=1;resizeParentMax=0;resizeLast=0;collapsible=0;marginBottom=0;html=1;" parent="1" vertex="1">
                    <mxGeometry x="-1870" y="-159" width="406" height="162" as="geometry"/>
                </mxCell>
                <mxCell id="207" value="- loggedUser: Utente" style="text;html=1;strokeColor=none;fillColor=none;align=left;verticalAlign=middle;spacingLeft=4;spacingRight=4;overflow=hidden;rotatable=0;points=[[0,0.5],[1,0.5]];portConstraint=eastwest;" parent="67" vertex="1">
                    <mxGeometry y="29" width="406" height="25" as="geometry"/>
                </mxCell>
                <mxCell id="68" value="" style="line;strokeWidth=1;fillColor=none;align=left;verticalAlign=middle;spacingTop=-1;spacingLeft=3;spacingRight=3;rotatable=0;labelPosition=right;points=[];portConstraint=eastwest;strokeColor=inherit;" parent="67" vertex="1">
                    <mxGeometry y="54" width="406" height="8" as="geometry"/>
                </mxCell>
                <mxCell id="216" value="+ requestBusinessToServer(): Business" style="text;html=1;strokeColor=none;fillColor=none;align=left;verticalAlign=middle;spacingLeft=4;spacingRight=4;overflow=hidden;rotatable=0;points=[[0,0.5],[1,0.5]];portConstraint=eastwest;" parent="67" vertex="1">
                    <mxGeometry y="62" width="406" height="25" as="geometry"/>
                </mxCell>
                <mxCell id="217" value="+ requestModifyBusinessToServer(): Business" style="text;html=1;strokeColor=none;fillColor=none;align=left;verticalAlign=middle;spacingLeft=4;spacingRight=4;overflow=hidden;rotatable=0;points=[[0,0.5],[1,0.5]];portConstraint=eastwest;" parent="67" vertex="1">
                    <mxGeometry y="87" width="406" height="25" as="geometry"/>
                </mxCell>
                <mxCell id="220" value="+ requestGetLogoToServer(): Image" style="text;html=1;strokeColor=none;fillColor=none;align=left;verticalAlign=middle;spacingLeft=4;spacingRight=4;overflow=hidden;rotatable=0;points=[[0,0.5],[1,0.5]];portConstraint=eastwest;" parent="67" vertex="1">
                    <mxGeometry y="112" width="406" height="25" as="geometry"/>
                </mxCell>
                <mxCell id="222" value="+ requestSetLogoToServer(image: File, fileName: String): Business" style="text;html=1;strokeColor=none;fillColor=none;align=left;verticalAlign=middle;spacingLeft=4;spacingRight=4;overflow=hidden;rotatable=0;points=[[0,0.5],[1,0.5]];portConstraint=eastwest;" parent="67" vertex="1">
                    <mxGeometry y="137" width="406" height="25" as="geometry"/>
                </mxCell>
                <mxCell id="473" style="edgeStyle=none;html=1;" parent="1" source="69" target="77" edge="1">
                    <mxGeometry relative="1" as="geometry"/>
                </mxCell>
                <mxCell id="474" value="*" style="edgeLabel;html=1;align=center;verticalAlign=middle;resizable=0;points=[];" parent="473" connectable="0" vertex="1">
                    <mxGeometry x="0.4327" y="3" relative="1" as="geometry">
                        <mxPoint as="offset"/>
                    </mxGeometry>
                </mxCell>
                <mxCell id="69" value="MenuDriver" style="swimlane;fontStyle=1;align=center;verticalAlign=middle;childLayout=stackLayout;horizontal=1;startSize=29;horizontalStack=0;resizeParent=1;resizeParentMax=0;resizeLast=0;collapsible=0;marginBottom=0;html=1;" parent="1" vertex="1">
                    <mxGeometry x="-625" y="1438.77" width="1068" height="412" as="geometry"/>
                </mxCell>
                <mxCell id="70" value="" style="line;strokeWidth=1;fillColor=none;align=left;verticalAlign=middle;spacingTop=-1;spacingLeft=3;spacingRight=3;rotatable=0;labelPosition=right;points=[];portConstraint=eastwest;strokeColor=inherit;" parent="69" vertex="1">
                    <mxGeometry y="29" width="1068" height="8" as="geometry"/>
                </mxCell>
                <mxCell id="151" value="+ requestMenuFromServer(menuController: MenuController): void" style="text;html=1;strokeColor=none;fillColor=none;align=left;verticalAlign=middle;spacingLeft=4;spacingRight=4;overflow=hidden;rotatable=0;points=[[0,0.5],[1,0.5]];portConstraint=eastwest;" parent="69" vertex="1">
                    <mxGeometry y="37" width="1068" height="25" as="geometry"/>
                </mxCell>
                <mxCell id="160" value="+ requestGetPiattiFromServer(menuController: MenuController, categoria: String): void" style="text;html=1;strokeColor=none;fillColor=none;align=left;verticalAlign=middle;spacingLeft=4;spacingRight=4;overflow=hidden;rotatable=0;points=[[0,0.5],[1,0.5]];portConstraint=eastwest;" parent="69" vertex="1">
                    <mxGeometry y="62" width="1068" height="25" as="geometry"/>
                </mxCell>
                <mxCell id="161" value="+ requestGetPiattiFromCategorie(idRistorante: Integer, menuController: MenuController, categoria: String): void" style="text;html=1;strokeColor=none;fillColor=none;align=left;verticalAlign=middle;spacingLeft=4;spacingRight=4;overflow=hidden;rotatable=0;points=[[0,0.5],[1,0.5]];portConstraint=eastwest;" parent="69" vertex="1">
                    <mxGeometry y="87" width="1068" height="25" as="geometry"/>
                </mxCell>
                <mxCell id="168" value="+ requestGetPiattiFromServer(): ArrayList&amp;lt;Piatto&amp;gt;" style="text;html=1;strokeColor=none;fillColor=none;align=left;verticalAlign=middle;spacingLeft=4;spacingRight=4;overflow=hidden;rotatable=0;points=[[0,0.5],[1,0.5]];portConstraint=eastwest;" parent="69" vertex="1">
                    <mxGeometry y="112" width="1068" height="25" as="geometry"/>
                </mxCell>
                <mxCell id="174" value="+ requestDeletePiatto(menuController MenuController, idPiatto: Integer): boolean" style="text;html=1;strokeColor=none;fillColor=none;align=left;verticalAlign=middle;spacingLeft=4;spacingRight=4;overflow=hidden;rotatable=0;points=[[0,0.5],[1,0.5]];portConstraint=eastwest;" parent="69" vertex="1">
                    <mxGeometry y="137" width="1068" height="25" as="geometry"/>
                </mxCell>
                <mxCell id="185" value="+ requestSearchPiatto(nomePiatto: String): ArrayList&amp;lt;Piatto&amp;gt;" style="text;html=1;strokeColor=none;fillColor=none;align=left;verticalAlign=middle;spacingLeft=4;spacingRight=4;overflow=hidden;rotatable=0;points=[[0,0.5],[1,0.5]];portConstraint=eastwest;" parent="69" vertex="1">
                    <mxGeometry y="162" width="1068" height="25" as="geometry"/>
                </mxCell>
                <mxCell id="186" value="+ requestUpdatePositionCategoria(idCategoria: Integer, posizione: Integer): boolean" style="text;html=1;strokeColor=none;fillColor=none;align=left;verticalAlign=middle;spacingLeft=4;spacingRight=4;overflow=hidden;rotatable=0;points=[[0,0.5],[1,0.5]];portConstraint=eastwest;" parent="69" vertex="1">
                    <mxGeometry y="187" width="1068" height="25" as="geometry"/>
                </mxCell>
                <mxCell id="189" value="+ requestUpdatePositionPiatto(idPiatto: Integer, posizione: Integer): boolean" style="text;html=1;strokeColor=none;fillColor=none;align=left;verticalAlign=middle;spacingLeft=4;spacingRight=4;overflow=hidden;rotatable=0;points=[[0,0.5],[1,0.5]];portConstraint=eastwest;" parent="69" vertex="1">
                    <mxGeometry y="212" width="1068" height="25" as="geometry"/>
                </mxCell>
                <mxCell id="191" value="+ getPiattoInfoFromServer(idPiatto: Integer): Piatto" style="text;html=1;strokeColor=none;fillColor=none;align=left;verticalAlign=middle;spacingLeft=4;spacingRight=4;overflow=hidden;rotatable=0;points=[[0,0.5],[1,0.5]];portConstraint=eastwest;" parent="69" vertex="1">
                    <mxGeometry y="237" width="1068" height="25" as="geometry"/>
                </mxCell>
                <mxCell id="192" value="+ modificaPiatto(nome: String, descrizione: String, costo: String, allergeni: String, nomeSecondaLingua: String, descrizioneSecondaLingua: String, categoria: String, idPiatto: Integer): boolean" style="text;html=1;strokeColor=none;fillColor=none;align=left;verticalAlign=middle;spacingLeft=4;spacingRight=4;overflow=hidden;rotatable=0;points=[[0,0.5],[1,0.5]];portConstraint=eastwest;" parent="69" vertex="1">
                    <mxGeometry y="262" width="1068" height="25" as="geometry"/>
                </mxCell>
                <mxCell id="201" value="+ creaPiatto(nome: String, descrizione: String, costo: String, allergeni: String, nomeSecondaLingua: String, descrizioneSecondaLingua: String, categoria: String, idPiatto: Integer): boolean" style="text;html=1;strokeColor=none;fillColor=none;align=left;verticalAlign=middle;spacingLeft=4;spacingRight=4;overflow=hidden;rotatable=0;points=[[0,0.5],[1,0.5]];portConstraint=eastwest;" parent="69" vertex="1">
                    <mxGeometry y="287" width="1068" height="25" as="geometry"/>
                </mxCell>
                <mxCell id="202" value="+ creaCategoria(nomeCategoriaNuova: String): boolean" style="text;html=1;strokeColor=none;fillColor=none;align=left;verticalAlign=middle;spacingLeft=4;spacingRight=4;overflow=hidden;rotatable=0;points=[[0,0.5],[1,0.5]];portConstraint=eastwest;" parent="69" vertex="1">
                    <mxGeometry y="312" width="1068" height="25" as="geometry"/>
                </mxCell>
                <mxCell id="203" value="+ autoCompletamentoProdotto(nomeProdotto: String): JSONObject" style="text;html=1;strokeColor=none;fillColor=none;align=left;verticalAlign=middle;spacingLeft=4;spacingRight=4;overflow=hidden;rotatable=0;points=[[0,0.5],[1,0.5]];portConstraint=eastwest;" parent="69" vertex="1">
                    <mxGeometry y="337" width="1068" height="25" as="geometry"/>
                </mxCell>
                <mxCell id="206" value="+ autoCompletamentoProdotto(nomeProdotto: String): JSONObject" style="text;html=1;strokeColor=none;fillColor=none;align=left;verticalAlign=middle;spacingLeft=4;spacingRight=4;overflow=hidden;rotatable=0;points=[[0,0.5],[1,0.5]];portConstraint=eastwest;" parent="69" vertex="1">
                    <mxGeometry y="362" width="1068" height="25" as="geometry"/>
                </mxCell>
                <mxCell id="152" value="- loggedUser: Utente" style="text;html=1;strokeColor=none;fillColor=none;align=left;verticalAlign=middle;spacingLeft=4;spacingRight=4;overflow=hidden;rotatable=0;points=[[0,0.5],[1,0.5]];portConstraint=eastwest;" parent="69" vertex="1">
                    <mxGeometry y="387" width="1068" height="25" as="geometry"/>
                </mxCell>
                <mxCell id="464" style="edgeStyle=none;html=1;" parent="1" source="71" target="81" edge="1">
                    <mxGeometry relative="1" as="geometry"/>
                </mxCell>
                <mxCell id="465" value="*" style="edgeLabel;html=1;align=center;verticalAlign=middle;resizable=0;points=[];" parent="464" connectable="0" vertex="1">
                    <mxGeometry x="0.7483" y="3" relative="1" as="geometry">
                        <mxPoint as="offset"/>
                    </mxGeometry>
                </mxCell>
                <mxCell id="71" value="UtenteDriver" style="swimlane;fontStyle=1;align=center;verticalAlign=middle;childLayout=stackLayout;horizontal=1;startSize=29;horizontalStack=0;resizeParent=1;resizeParentMax=0;resizeLast=0;collapsible=0;marginBottom=0;html=1;" parent="1" vertex="1">
                    <mxGeometry x="-176" y="-598" width="773" height="262" as="geometry"/>
                </mxCell>
                <mxCell id="125" value="- loggedUser: Utente" style="text;html=1;strokeColor=none;fillColor=none;align=left;verticalAlign=middle;spacingLeft=4;spacingRight=4;overflow=hidden;rotatable=0;points=[[0,0.5],[1,0.5]];portConstraint=eastwest;" parent="71" vertex="1">
                    <mxGeometry y="29" width="773" height="25" as="geometry"/>
                </mxCell>
                <mxCell id="72" value="" style="line;strokeWidth=1;fillColor=none;align=left;verticalAlign=middle;spacingTop=-1;spacingLeft=3;spacingRight=3;rotatable=0;labelPosition=right;points=[];portConstraint=eastwest;strokeColor=inherit;" parent="71" vertex="1">
                    <mxGeometry y="54" width="773" height="8" as="geometry"/>
                </mxCell>
                <mxCell id="126" value="+ requestLoginToServer(email: String, password: String): Utente" style="text;html=1;strokeColor=none;fillColor=none;align=left;verticalAlign=middle;spacingLeft=4;spacingRight=4;overflow=hidden;rotatable=0;points=[[0,0.5],[1,0.5]];portConstraint=eastwest;" parent="71" vertex="1">
                    <mxGeometry y="62" width="773" height="25" as="geometry"/>
                </mxCell>
                <mxCell id="131" value="+ addNewEmployee(nome: String, cognome: String, email: String, password: String, dataNascita: String, ruolo: String): Utente" style="text;html=1;strokeColor=none;fillColor=none;align=left;verticalAlign=middle;spacingLeft=4;spacingRight=4;overflow=hidden;rotatable=0;points=[[0,0.5],[1,0.5]];portConstraint=eastwest;" parent="71" vertex="1">
                    <mxGeometry y="87" width="773" height="25" as="geometry"/>
                </mxCell>
                <mxCell id="133" value="+ showEmployee(): ArrayList&amp;lt;Utente&amp;gt;" style="text;html=1;strokeColor=none;fillColor=none;align=left;verticalAlign=middle;spacingLeft=4;spacingRight=4;overflow=hidden;rotatable=0;points=[[0,0.5],[1,0.5]];portConstraint=eastwest;" parent="71" vertex="1">
                    <mxGeometry y="112" width="773" height="25" as="geometry"/>
                </mxCell>
                <mxCell id="139" value="+ requestModifyAccountToServer(nome: String, email: String, cognome: String): boolean" style="text;html=1;strokeColor=none;fillColor=none;align=left;verticalAlign=middle;spacingLeft=4;spacingRight=4;overflow=hidden;rotatable=0;points=[[0,0.5],[1,0.5]];portConstraint=eastwest;" parent="71" vertex="1">
                    <mxGeometry y="137" width="773" height="25" as="geometry"/>
                </mxCell>
                <mxCell id="140" value="+ requestSignUpToServer(nome: String, email: String, cognome: String, password: String, dataNascita: String, nomeAttivita: String): boolean" style="text;html=1;strokeColor=none;fillColor=none;align=left;verticalAlign=middle;spacingLeft=4;spacingRight=4;overflow=hidden;rotatable=0;points=[[0,0.5],[1,0.5]];portConstraint=eastwest;" parent="71" vertex="1">
                    <mxGeometry y="162" width="773" height="25" as="geometry"/>
                </mxCell>
                <mxCell id="142" value="+ requestUpgradeRoleToServer(idUtente: String, ruolo: String): void" style="text;html=1;strokeColor=none;fillColor=none;align=left;verticalAlign=middle;spacingLeft=4;spacingRight=4;overflow=hidden;rotatable=0;points=[[0,0.5],[1,0.5]];portConstraint=eastwest;" parent="71" vertex="1">
                    <mxGeometry y="187" width="773" height="25" as="geometry"/>
                </mxCell>
                <mxCell id="143" value="+ requestDowngradeRoleToServer(idUtente: String, ruolo: String): void" style="text;html=1;strokeColor=none;fillColor=none;align=left;verticalAlign=middle;spacingLeft=4;spacingRight=4;overflow=hidden;rotatable=0;points=[[0,0.5],[1,0.5]];portConstraint=eastwest;" parent="71" vertex="1">
                    <mxGeometry y="212" width="773" height="25" as="geometry"/>
                </mxCell>
                <mxCell id="145" value="+ runLogin(email: String, password: String): Utente" style="text;html=1;strokeColor=none;fillColor=none;align=left;verticalAlign=middle;spacingLeft=4;spacingRight=4;overflow=hidden;rotatable=0;points=[[0,0.5],[1,0.5]];portConstraint=eastwest;" parent="71" vertex="1">
                    <mxGeometry y="237" width="773" height="25" as="geometry"/>
                </mxCell>
                <mxCell id="73" value="Avviso" style="swimlane;fontStyle=1;align=center;verticalAlign=middle;childLayout=stackLayout;horizontal=1;startSize=29;horizontalStack=0;resizeParent=1;resizeParentMax=0;resizeLast=0;collapsible=0;marginBottom=0;html=1;" parent="1" vertex="1">
                    <mxGeometry x="1220" y="229" width="290" height="219" as="geometry"/>
                </mxCell>
                <mxCell id="247" value="- idAvviso: int" style="text;strokeColor=none;fillColor=none;align=left;verticalAlign=top;spacingLeft=4;spacingRight=4;overflow=hidden;rotatable=0;points=[[0,0.5],[1,0.5]];portConstraint=eastwest;" parent="73" vertex="1">
                    <mxGeometry y="29" width="290" height="26" as="geometry"/>
                </mxCell>
                <mxCell id="253" value="- idUtente: int" style="text;strokeColor=none;fillColor=none;align=left;verticalAlign=top;spacingLeft=4;spacingRight=4;overflow=hidden;rotatable=0;points=[[0,0.5],[1,0.5]];portConstraint=eastwest;" parent="73" vertex="1">
                    <mxGeometry y="55" width="290" height="26" as="geometry"/>
                </mxCell>
                <mxCell id="254" value="- idRistorante: int" style="text;strokeColor=none;fillColor=none;align=left;verticalAlign=top;spacingLeft=4;spacingRight=4;overflow=hidden;rotatable=0;points=[[0,0.5],[1,0.5]];portConstraint=eastwest;" parent="73" vertex="1">
                    <mxGeometry y="81" width="290" height="26" as="geometry"/>
                </mxCell>
                <mxCell id="256" value="- testo: String" style="text;strokeColor=none;fillColor=none;align=left;verticalAlign=top;spacingLeft=4;spacingRight=4;overflow=hidden;rotatable=0;points=[[0,0.5],[1,0.5]];portConstraint=eastwest;" parent="73" vertex="1">
                    <mxGeometry y="107" width="290" height="26" as="geometry"/>
                </mxCell>
                <mxCell id="257" value="- dataOra: String" style="text;strokeColor=none;fillColor=none;align=left;verticalAlign=top;spacingLeft=4;spacingRight=4;overflow=hidden;rotatable=0;points=[[0,0.5],[1,0.5]];portConstraint=eastwest;" parent="73" vertex="1">
                    <mxGeometry y="133" width="290" height="26" as="geometry"/>
                </mxCell>
                <mxCell id="258" value="- autore: String" style="text;strokeColor=none;fillColor=none;align=left;verticalAlign=top;spacingLeft=4;spacingRight=4;overflow=hidden;rotatable=0;points=[[0,0.5],[1,0.5]];portConstraint=eastwest;" parent="73" vertex="1">
                    <mxGeometry y="159" width="290" height="26" as="geometry"/>
                </mxCell>
                <mxCell id="259" value="- avvisiController: AvvisiController" style="text;strokeColor=none;fillColor=none;align=left;verticalAlign=top;spacingLeft=4;spacingRight=4;overflow=hidden;rotatable=0;points=[[0,0.5],[1,0.5]];portConstraint=eastwest;" parent="73" vertex="1">
                    <mxGeometry y="185" width="290" height="26" as="geometry"/>
                </mxCell>
                <mxCell id="74" value="" style="line;strokeWidth=1;fillColor=none;align=left;verticalAlign=middle;spacingTop=-1;spacingLeft=3;spacingRight=3;rotatable=0;labelPosition=right;points=[];portConstraint=eastwest;strokeColor=inherit;" parent="73" vertex="1">
                    <mxGeometry y="211" width="290" height="8" as="geometry"/>
                </mxCell>
                <mxCell id="75" value="Business" style="swimlane;fontStyle=1;align=center;verticalAlign=middle;childLayout=stackLayout;horizontal=1;startSize=29;horizontalStack=0;resizeParent=1;resizeParentMax=0;resizeLast=0;collapsible=0;marginBottom=0;html=1;" parent="1" vertex="1">
                    <mxGeometry x="-1803" y="-504" width="290" height="193" as="geometry"/>
                </mxCell>
                <mxCell id="262" value="- idRistorante: int" style="text;strokeColor=none;fillColor=none;align=left;verticalAlign=top;spacingLeft=4;spacingRight=4;overflow=hidden;rotatable=0;points=[[0,0.5],[1,0.5]];portConstraint=eastwest;" parent="75" vertex="1">
                    <mxGeometry y="29" width="290" height="26" as="geometry"/>
                </mxCell>
                <mxCell id="263" value="- idProprietario: int" style="text;strokeColor=none;fillColor=none;align=left;verticalAlign=top;spacingLeft=4;spacingRight=4;overflow=hidden;rotatable=0;points=[[0,0.5],[1,0.5]];portConstraint=eastwest;" parent="75" vertex="1">
                    <mxGeometry y="55" width="290" height="26" as="geometry"/>
                </mxCell>
                <mxCell id="264" value="- nome: String" style="text;strokeColor=none;fillColor=none;align=left;verticalAlign=top;spacingLeft=4;spacingRight=4;overflow=hidden;rotatable=0;points=[[0,0.5],[1,0.5]];portConstraint=eastwest;" parent="75" vertex="1">
                    <mxGeometry y="81" width="290" height="26" as="geometry"/>
                </mxCell>
                <mxCell id="267" value="- numeroTelefono: String" style="text;strokeColor=none;fillColor=none;align=left;verticalAlign=top;spacingLeft=4;spacingRight=4;overflow=hidden;rotatable=0;points=[[0,0.5],[1,0.5]];portConstraint=eastwest;" parent="75" vertex="1">
                    <mxGeometry y="107" width="290" height="26" as="geometry"/>
                </mxCell>
                <mxCell id="268" value="- indirizzo: String" style="text;strokeColor=none;fillColor=none;align=left;verticalAlign=top;spacingLeft=4;spacingRight=4;overflow=hidden;rotatable=0;points=[[0,0.5],[1,0.5]];portConstraint=eastwest;" parent="75" vertex="1">
                    <mxGeometry y="133" width="290" height="26" as="geometry"/>
                </mxCell>
                <mxCell id="269" value="- nomeImmagine: String" style="text;strokeColor=none;fillColor=none;align=left;verticalAlign=top;spacingLeft=4;spacingRight=4;overflow=hidden;rotatable=0;points=[[0,0.5],[1,0.5]];portConstraint=eastwest;" parent="75" vertex="1">
                    <mxGeometry y="159" width="290" height="26" as="geometry"/>
                </mxCell>
                <mxCell id="76" value="" style="line;strokeWidth=1;fillColor=none;align=left;verticalAlign=middle;spacingTop=-1;spacingLeft=3;spacingRight=3;rotatable=0;labelPosition=right;points=[];portConstraint=eastwest;strokeColor=inherit;" parent="75" vertex="1">
                    <mxGeometry y="185" width="290" height="8" as="geometry"/>
                </mxCell>
                <mxCell id="77" value="CategoriaMenu" style="swimlane;fontStyle=1;align=center;verticalAlign=middle;childLayout=stackLayout;horizontal=1;startSize=29;horizontalStack=0;resizeParent=1;resizeParentMax=0;resizeLast=0;collapsible=0;marginBottom=0;html=1;" parent="1" vertex="1">
                    <mxGeometry x="212" y="1236" width="290" height="141" as="geometry"/>
                </mxCell>
                <mxCell id="270" value="- idCategoria: int" style="text;strokeColor=none;fillColor=none;align=left;verticalAlign=top;spacingLeft=4;spacingRight=4;overflow=hidden;rotatable=0;points=[[0,0.5],[1,0.5]];portConstraint=eastwest;" parent="77" vertex="1">
                    <mxGeometry y="29" width="290" height="26" as="geometry"/>
                </mxCell>
                <mxCell id="271" value="- idRistorante: int" style="text;strokeColor=none;fillColor=none;align=left;verticalAlign=top;spacingLeft=4;spacingRight=4;overflow=hidden;rotatable=0;points=[[0,0.5],[1,0.5]];portConstraint=eastwest;" parent="77" vertex="1">
                    <mxGeometry y="55" width="290" height="26" as="geometry"/>
                </mxCell>
                <mxCell id="272" value="- posizione: Integer" style="text;strokeColor=none;fillColor=none;align=left;verticalAlign=top;spacingLeft=4;spacingRight=4;overflow=hidden;rotatable=0;points=[[0,0.5],[1,0.5]];portConstraint=eastwest;" parent="77" vertex="1">
                    <mxGeometry y="81" width="290" height="26" as="geometry"/>
                </mxCell>
                <mxCell id="273" value="- nome: String" style="text;strokeColor=none;fillColor=none;align=left;verticalAlign=top;spacingLeft=4;spacingRight=4;overflow=hidden;rotatable=0;points=[[0,0.5],[1,0.5]];portConstraint=eastwest;" parent="77" vertex="1">
                    <mxGeometry y="107" width="290" height="26" as="geometry"/>
                </mxCell>
                <mxCell id="78" value="" style="line;strokeWidth=1;fillColor=none;align=left;verticalAlign=middle;spacingTop=-1;spacingLeft=3;spacingRight=3;rotatable=0;labelPosition=right;points=[];portConstraint=eastwest;strokeColor=inherit;" parent="77" vertex="1">
                    <mxGeometry y="133" width="290" height="8" as="geometry"/>
                </mxCell>
                <mxCell id="79" value="Piatto" style="swimlane;fontStyle=1;align=center;verticalAlign=middle;childLayout=stackLayout;horizontal=1;startSize=29;horizontalStack=0;resizeParent=1;resizeParentMax=0;resizeLast=0;collapsible=0;marginBottom=0;html=1;" parent="1" vertex="1">
                    <mxGeometry x="267" y="483.9999999999999" width="290" height="323" as="geometry"/>
                </mxCell>
                <mxCell id="274" value="- nome: String" style="text;strokeColor=none;fillColor=none;align=left;verticalAlign=top;spacingLeft=4;spacingRight=4;overflow=hidden;rotatable=0;points=[[0,0.5],[1,0.5]];portConstraint=eastwest;" parent="79" vertex="1">
                    <mxGeometry y="29" width="290" height="26" as="geometry"/>
                </mxCell>
                <mxCell id="278" value="- descrizione: String" style="text;strokeColor=none;fillColor=none;align=left;verticalAlign=top;spacingLeft=4;spacingRight=4;overflow=hidden;rotatable=0;points=[[0,0.5],[1,0.5]];portConstraint=eastwest;" parent="79" vertex="1">
                    <mxGeometry y="55" width="290" height="26" as="geometry"/>
                </mxCell>
                <mxCell id="279" value="- allergeni: String" style="text;strokeColor=none;fillColor=none;align=left;verticalAlign=top;spacingLeft=4;spacingRight=4;overflow=hidden;rotatable=0;points=[[0,0.5],[1,0.5]];portConstraint=eastwest;" parent="79" vertex="1">
                    <mxGeometry y="81" width="290" height="26" as="geometry"/>
                </mxCell>
                <mxCell id="280" value="- nomeSecondaLingua: String" style="text;strokeColor=none;fillColor=none;align=left;verticalAlign=top;spacingLeft=4;spacingRight=4;overflow=hidden;rotatable=0;points=[[0,0.5],[1,0.5]];portConstraint=eastwest;" parent="79" vertex="1">
                    <mxGeometry y="107" width="290" height="26" as="geometry"/>
                </mxCell>
                <mxCell id="281" value="- descrizioneSecondaLingua: String" style="text;strokeColor=none;fillColor=none;align=left;verticalAlign=top;spacingLeft=4;spacingRight=4;overflow=hidden;rotatable=0;points=[[0,0.5],[1,0.5]];portConstraint=eastwest;" parent="79" vertex="1">
                    <mxGeometry y="133" width="290" height="26" as="geometry"/>
                </mxCell>
                <mxCell id="282" value="- idElemento: int" style="text;strokeColor=none;fillColor=none;align=left;verticalAlign=top;spacingLeft=4;spacingRight=4;overflow=hidden;rotatable=0;points=[[0,0.5],[1,0.5]];portConstraint=eastwest;" parent="79" vertex="1">
                    <mxGeometry y="159" width="290" height="26" as="geometry"/>
                </mxCell>
                <mxCell id="283" value="- idRistorante: int" style="text;strokeColor=none;fillColor=none;align=left;verticalAlign=top;spacingLeft=4;spacingRight=4;overflow=hidden;rotatable=0;points=[[0,0.5],[1,0.5]];portConstraint=eastwest;" parent="79" vertex="1">
                    <mxGeometry y="185" width="290" height="26" as="geometry"/>
                </mxCell>
                <mxCell id="284" value="- idCategoria: int" style="text;strokeColor=none;fillColor=none;align=left;verticalAlign=top;spacingLeft=4;spacingRight=4;overflow=hidden;rotatable=0;points=[[0,0.5],[1,0.5]];portConstraint=eastwest;" parent="79" vertex="1">
                    <mxGeometry y="211" width="290" height="26" as="geometry"/>
                </mxCell>
                <mxCell id="285" value="- posizione: Integer" style="text;strokeColor=none;fillColor=none;align=left;verticalAlign=top;spacingLeft=4;spacingRight=4;overflow=hidden;rotatable=0;points=[[0,0.5],[1,0.5]];portConstraint=eastwest;" parent="79" vertex="1">
                    <mxGeometry y="237" width="290" height="26" as="geometry"/>
                </mxCell>
                <mxCell id="286" value="- prezzo: float" style="text;strokeColor=none;fillColor=none;align=left;verticalAlign=top;spacingLeft=4;spacingRight=4;overflow=hidden;rotatable=0;points=[[0,0.5],[1,0.5]];portConstraint=eastwest;" parent="79" vertex="1">
                    <mxGeometry y="263" width="290" height="26" as="geometry"/>
                </mxCell>
                <mxCell id="287" value="- menuController: MenuController" style="text;strokeColor=none;fillColor=none;align=left;verticalAlign=top;spacingLeft=4;spacingRight=4;overflow=hidden;rotatable=0;points=[[0,0.5],[1,0.5]];portConstraint=eastwest;" parent="79" vertex="1">
                    <mxGeometry y="289" width="290" height="26" as="geometry"/>
                </mxCell>
                <mxCell id="80" value="" style="line;strokeWidth=1;fillColor=none;align=left;verticalAlign=middle;spacingTop=-1;spacingLeft=3;spacingRight=3;rotatable=0;labelPosition=right;points=[];portConstraint=eastwest;strokeColor=inherit;" parent="79" vertex="1">
                    <mxGeometry y="315" width="290" height="8" as="geometry"/>
                </mxCell>
                <mxCell id="81" value="Utente" style="swimlane;fontStyle=1;align=center;verticalAlign=middle;childLayout=stackLayout;horizontal=1;startSize=29;horizontalStack=0;resizeParent=1;resizeParentMax=0;resizeLast=0;collapsible=0;marginBottom=0;html=1;" parent="1" vertex="1">
                    <mxGeometry x="817" y="-805" width="290" height="349" as="geometry"/>
                </mxCell>
                <mxCell id="288" value="- idUtente: int" style="text;strokeColor=none;fillColor=none;align=left;verticalAlign=top;spacingLeft=4;spacingRight=4;overflow=hidden;rotatable=0;points=[[0,0.5],[1,0.5]];portConstraint=eastwest;" parent="81" vertex="1">
                    <mxGeometry y="29" width="290" height="26" as="geometry"/>
                </mxCell>
                <mxCell id="289" value="- nome: String" style="text;strokeColor=none;fillColor=none;align=left;verticalAlign=top;spacingLeft=4;spacingRight=4;overflow=hidden;rotatable=0;points=[[0,0.5],[1,0.5]];portConstraint=eastwest;" parent="81" vertex="1">
                    <mxGeometry y="55" width="290" height="26" as="geometry"/>
                </mxCell>
                <mxCell id="291" value="- cognome: String" style="text;strokeColor=none;fillColor=none;align=left;verticalAlign=top;spacingLeft=4;spacingRight=4;overflow=hidden;rotatable=0;points=[[0,0.5],[1,0.5]];portConstraint=eastwest;" parent="81" vertex="1">
                    <mxGeometry y="81" width="290" height="26" as="geometry"/>
                </mxCell>
                <mxCell id="292" value="- dataNascita: String" style="text;strokeColor=none;fillColor=none;align=left;verticalAlign=top;spacingLeft=4;spacingRight=4;overflow=hidden;rotatable=0;points=[[0,0.5],[1,0.5]];portConstraint=eastwest;" parent="81" vertex="1">
                    <mxGeometry y="107" width="290" height="26" as="geometry"/>
                </mxCell>
                <mxCell id="294" value="- email: String" style="text;strokeColor=none;fillColor=none;align=left;verticalAlign=top;spacingLeft=4;spacingRight=4;overflow=hidden;rotatable=0;points=[[0,0.5],[1,0.5]];portConstraint=eastwest;" parent="81" vertex="1">
                    <mxGeometry y="133" width="290" height="26" as="geometry"/>
                </mxCell>
                <mxCell id="295" value="- ruolo: String" style="text;strokeColor=none;fillColor=none;align=left;verticalAlign=top;spacingLeft=4;spacingRight=4;overflow=hidden;rotatable=0;points=[[0,0.5],[1,0.5]];portConstraint=eastwest;" parent="81" vertex="1">
                    <mxGeometry y="159" width="290" height="26" as="geometry"/>
                </mxCell>
                <mxCell id="296" value="- isFristAccess: boolean" style="text;strokeColor=none;fillColor=none;align=left;verticalAlign=top;spacingLeft=4;spacingRight=4;overflow=hidden;rotatable=0;points=[[0,0.5],[1,0.5]];portConstraint=eastwest;" parent="81" vertex="1">
                    <mxGeometry y="185" width="290" height="26" as="geometry"/>
                </mxCell>
                <mxCell id="297" value="- aggiuntoDa: int" style="text;strokeColor=none;fillColor=none;align=left;verticalAlign=top;spacingLeft=4;spacingRight=4;overflow=hidden;rotatable=0;points=[[0,0.5],[1,0.5]];portConstraint=eastwest;" parent="81" vertex="1">
                    <mxGeometry y="211" width="290" height="26" as="geometry"/>
                </mxCell>
                <mxCell id="300" value="- dataAggiunta: String" style="text;strokeColor=none;fillColor=none;align=left;verticalAlign=top;spacingLeft=4;spacingRight=4;overflow=hidden;rotatable=0;points=[[0,0.5],[1,0.5]];portConstraint=eastwest;" parent="81" vertex="1">
                    <mxGeometry y="237" width="290" height="26" as="geometry"/>
                </mxCell>
                <mxCell id="298" value="- idRistorante: int" style="text;strokeColor=none;fillColor=none;align=left;verticalAlign=top;spacingLeft=4;spacingRight=4;overflow=hidden;rotatable=0;points=[[0,0.5],[1,0.5]];portConstraint=eastwest;" parent="81" vertex="1">
                    <mxGeometry y="263" width="290" height="26" as="geometry"/>
                </mxCell>
                <mxCell id="302" value="- token: String" style="text;strokeColor=none;fillColor=none;align=left;verticalAlign=top;spacingLeft=4;spacingRight=4;overflow=hidden;rotatable=0;points=[[0,0.5],[1,0.5]];portConstraint=eastwest;" parent="81" vertex="1">
                    <mxGeometry y="289" width="290" height="26" as="geometry"/>
                </mxCell>
                <mxCell id="304" value="- tokenExpirationTimestamp: String" style="text;strokeColor=none;fillColor=none;align=left;verticalAlign=top;spacingLeft=4;spacingRight=4;overflow=hidden;rotatable=0;points=[[0,0.5],[1,0.5]];portConstraint=eastwest;" parent="81" vertex="1">
                    <mxGeometry y="315" width="290" height="26" as="geometry"/>
                </mxCell>
                <mxCell id="82" value="" style="line;strokeWidth=1;fillColor=none;align=left;verticalAlign=middle;spacingTop=-1;spacingLeft=3;spacingRight=3;rotatable=0;labelPosition=right;points=[];portConstraint=eastwest;strokeColor=inherit;" parent="81" vertex="1">
                    <mxGeometry y="341" width="290" height="8" as="geometry"/>
                </mxCell>
                <mxCell id="85" value="Observable" style="swimlane;fontStyle=1;align=center;verticalAlign=top;childLayout=stackLayout;horizontal=1;startSize=26;horizontalStack=0;resizeParent=1;resizeParentMax=0;resizeLast=0;collapsible=1;marginBottom=0;strokeColor=default;fillColor=none;" parent="1" vertex="1">
                    <mxGeometry x="1709" y="273" width="160" height="112" as="geometry"/>
                </mxCell>
                <mxCell id="86" value="" style="line;strokeWidth=1;fillColor=none;align=left;verticalAlign=middle;spacingTop=-1;spacingLeft=3;spacingRight=3;rotatable=0;labelPosition=right;points=[];portConstraint=eastwest;strokeColor=inherit;" parent="85" vertex="1">
                    <mxGeometry y="26" width="160" height="8" as="geometry"/>
                </mxCell>
                <mxCell id="87" value="+ notifyObservers()" style="text;strokeColor=none;fillColor=none;align=left;verticalAlign=top;spacingLeft=4;spacingRight=4;overflow=hidden;rotatable=0;points=[[0,0.5],[1,0.5]];portConstraint=eastwest;" parent="85" vertex="1">
                    <mxGeometry y="34" width="160" height="26" as="geometry"/>
                </mxCell>
                <mxCell id="88" value="+ addObserver(Observer o)" style="text;strokeColor=none;fillColor=none;align=left;verticalAlign=top;spacingLeft=4;spacingRight=4;overflow=hidden;rotatable=0;points=[[0,0.5],[1,0.5]];portConstraint=eastwest;" parent="85" vertex="1">
                    <mxGeometry y="60" width="160" height="26" as="geometry"/>
                </mxCell>
                <mxCell id="89" value="+ hasChanged()" style="text;strokeColor=none;fillColor=none;align=left;verticalAlign=top;spacingLeft=4;spacingRight=4;overflow=hidden;rotatable=0;points=[[0,0.5],[1,0.5]];portConstraint=eastwest;" parent="85" vertex="1">
                    <mxGeometry y="86" width="160" height="26" as="geometry"/>
                </mxCell>
                <mxCell id="90" value="&lt;span style=&quot;background-color: rgb(255, 255, 255);&quot;&gt;&amp;lt;&amp;lt;interface&amp;gt;&amp;gt;&lt;/span&gt;&lt;br&gt;Observer" style="swimlane;fontStyle=1;align=center;verticalAlign=middle;childLayout=stackLayout;horizontal=1;startSize=29;horizontalStack=0;resizeParent=1;resizeParentMax=0;resizeLast=0;collapsible=0;marginBottom=0;html=1;" parent="1" vertex="1">
                    <mxGeometry x="748" y="153" width="290" height="62" as="geometry"/>
                </mxCell>
                <mxCell id="91" value="" style="line;strokeWidth=1;fillColor=none;align=left;verticalAlign=middle;spacingTop=-1;spacingLeft=3;spacingRight=3;rotatable=0;labelPosition=right;points=[];portConstraint=eastwest;strokeColor=inherit;" parent="90" vertex="1">
                    <mxGeometry y="29" width="290" height="8" as="geometry"/>
                </mxCell>
                <mxCell id="92" value="+ update(Observable : o, Object : arg)&amp;nbsp; : void" style="text;html=1;strokeColor=none;fillColor=none;align=left;verticalAlign=middle;spacingLeft=4;spacingRight=4;overflow=hidden;rotatable=0;points=[[0,0.5],[1,0.5]];portConstraint=eastwest;" parent="90" vertex="1">
                    <mxGeometry y="37" width="290" height="25" as="geometry"/>
                </mxCell>
                <mxCell id="93" value="Observable" style="swimlane;fontStyle=1;align=center;verticalAlign=top;childLayout=stackLayout;horizontal=1;startSize=26;horizontalStack=0;resizeParent=1;resizeParentMax=0;resizeLast=0;collapsible=1;marginBottom=0;strokeColor=default;fillColor=none;" parent="1" vertex="1">
                    <mxGeometry x="-2040" y="-477" width="160" height="112" as="geometry"/>
                </mxCell>
                <mxCell id="94" value="" style="line;strokeWidth=1;fillColor=none;align=left;verticalAlign=middle;spacingTop=-1;spacingLeft=3;spacingRight=3;rotatable=0;labelPosition=right;points=[];portConstraint=eastwest;strokeColor=inherit;" parent="93" vertex="1">
                    <mxGeometry y="26" width="160" height="8" as="geometry"/>
                </mxCell>
                <mxCell id="95" value="+ notifyObservers()" style="text;strokeColor=none;fillColor=none;align=left;verticalAlign=top;spacingLeft=4;spacingRight=4;overflow=hidden;rotatable=0;points=[[0,0.5],[1,0.5]];portConstraint=eastwest;" parent="93" vertex="1">
                    <mxGeometry y="34" width="160" height="26" as="geometry"/>
                </mxCell>
                <mxCell id="96" value="+ addObserver(Observer o)" style="text;strokeColor=none;fillColor=none;align=left;verticalAlign=top;spacingLeft=4;spacingRight=4;overflow=hidden;rotatable=0;points=[[0,0.5],[1,0.5]];portConstraint=eastwest;" parent="93" vertex="1">
                    <mxGeometry y="60" width="160" height="26" as="geometry"/>
                </mxCell>
                <mxCell id="97" value="+ hasChanged()" style="text;strokeColor=none;fillColor=none;align=left;verticalAlign=top;spacingLeft=4;spacingRight=4;overflow=hidden;rotatable=0;points=[[0,0.5],[1,0.5]];portConstraint=eastwest;" parent="93" vertex="1">
                    <mxGeometry y="86" width="160" height="26" as="geometry"/>
                </mxCell>
                <mxCell id="98" value="Observable" style="swimlane;fontStyle=1;align=center;verticalAlign=top;childLayout=stackLayout;horizontal=1;startSize=26;horizontalStack=0;resizeParent=1;resizeParentMax=0;resizeLast=0;collapsible=1;marginBottom=0;strokeColor=default;fillColor=none;" parent="1" vertex="1">
                    <mxGeometry x="635" y="1262.5" width="160" height="112" as="geometry"/>
                </mxCell>
                <mxCell id="99" value="" style="line;strokeWidth=1;fillColor=none;align=left;verticalAlign=middle;spacingTop=-1;spacingLeft=3;spacingRight=3;rotatable=0;labelPosition=right;points=[];portConstraint=eastwest;strokeColor=inherit;" parent="98" vertex="1">
                    <mxGeometry y="26" width="160" height="8" as="geometry"/>
                </mxCell>
                <mxCell id="100" value="+ notifyObservers()" style="text;strokeColor=none;fillColor=none;align=left;verticalAlign=top;spacingLeft=4;spacingRight=4;overflow=hidden;rotatable=0;points=[[0,0.5],[1,0.5]];portConstraint=eastwest;" parent="98" vertex="1">
                    <mxGeometry y="34" width="160" height="26" as="geometry"/>
                </mxCell>
                <mxCell id="101" value="+ addObserver(Observer o)" style="text;strokeColor=none;fillColor=none;align=left;verticalAlign=top;spacingLeft=4;spacingRight=4;overflow=hidden;rotatable=0;points=[[0,0.5],[1,0.5]];portConstraint=eastwest;" parent="98" vertex="1">
                    <mxGeometry y="60" width="160" height="26" as="geometry"/>
                </mxCell>
                <mxCell id="102" value="+ hasChanged()" style="text;strokeColor=none;fillColor=none;align=left;verticalAlign=top;spacingLeft=4;spacingRight=4;overflow=hidden;rotatable=0;points=[[0,0.5],[1,0.5]];portConstraint=eastwest;" parent="98" vertex="1">
                    <mxGeometry y="86" width="160" height="26" as="geometry"/>
                </mxCell>
                <mxCell id="103" value="Observable" style="swimlane;fontStyle=1;align=center;verticalAlign=top;childLayout=stackLayout;horizontal=1;startSize=26;horizontalStack=0;resizeParent=1;resizeParentMax=0;resizeLast=0;collapsible=1;marginBottom=0;strokeColor=default;fillColor=none;" parent="1" vertex="1">
                    <mxGeometry x="626" y="494.9999999999999" width="160" height="112" as="geometry"/>
                </mxCell>
                <mxCell id="104" value="" style="line;strokeWidth=1;fillColor=none;align=left;verticalAlign=middle;spacingTop=-1;spacingLeft=3;spacingRight=3;rotatable=0;labelPosition=right;points=[];portConstraint=eastwest;strokeColor=inherit;" parent="103" vertex="1">
                    <mxGeometry y="26" width="160" height="8" as="geometry"/>
                </mxCell>
                <mxCell id="105" value="+ notifyObservers()" style="text;strokeColor=none;fillColor=none;align=left;verticalAlign=top;spacingLeft=4;spacingRight=4;overflow=hidden;rotatable=0;points=[[0,0.5],[1,0.5]];portConstraint=eastwest;" parent="103" vertex="1">
                    <mxGeometry y="34" width="160" height="26" as="geometry"/>
                </mxCell>
                <mxCell id="106" value="+ addObserver(Observer o)" style="text;strokeColor=none;fillColor=none;align=left;verticalAlign=top;spacingLeft=4;spacingRight=4;overflow=hidden;rotatable=0;points=[[0,0.5],[1,0.5]];portConstraint=eastwest;" parent="103" vertex="1">
                    <mxGeometry y="60" width="160" height="26" as="geometry"/>
                </mxCell>
                <mxCell id="107" value="+ hasChanged()" style="text;strokeColor=none;fillColor=none;align=left;verticalAlign=top;spacingLeft=4;spacingRight=4;overflow=hidden;rotatable=0;points=[[0,0.5],[1,0.5]];portConstraint=eastwest;" parent="103" vertex="1">
                    <mxGeometry y="86" width="160" height="26" as="geometry"/>
                </mxCell>
                <mxCell id="108" value="Extends" style="endArrow=block;endSize=16;endFill=0;html=1;" parent="1" source="73" target="85" edge="1">
                    <mxGeometry width="160" relative="1" as="geometry">
                        <mxPoint x="1325" y="670" as="sourcePoint"/>
                        <mxPoint x="1485" y="670" as="targetPoint"/>
                    </mxGeometry>
                </mxCell>
                <mxCell id="110" value="Extends" style="endArrow=block;endSize=16;endFill=0;html=1;" parent="1" source="75" target="93" edge="1">
                    <mxGeometry width="160" relative="1" as="geometry">
                        <mxPoint x="-1563" y="-387" as="sourcePoint"/>
                        <mxPoint x="-1328" y="-388" as="targetPoint"/>
                    </mxGeometry>
                </mxCell>
                <mxCell id="111" value="Extends" style="endArrow=block;endSize=16;endFill=0;html=1;" parent="1" source="77" target="98" edge="1">
                    <mxGeometry width="160" relative="1" as="geometry">
                        <mxPoint x="632" y="1136.0433358528599" as="sourcePoint"/>
                        <mxPoint x="822" y="1270" as="targetPoint"/>
                    </mxGeometry>
                </mxCell>
                <mxCell id="112" value="Extends" style="endArrow=block;endSize=16;endFill=0;html=1;" parent="1" source="79" target="103" edge="1">
                    <mxGeometry width="160" relative="1" as="geometry">
                        <mxPoint x="374" y="265.40333585285975" as="sourcePoint"/>
                        <mxPoint x="544" y="247.8679365079363" as="targetPoint"/>
                    </mxGeometry>
                </mxCell>
                <mxCell id="113" value="Extends" style="endArrow=block;endSize=16;endFill=0;html=1;" parent="1" source="81" target="114" edge="1">
                    <mxGeometry width="160" relative="1" as="geometry">
                        <mxPoint x="1209" y="-1460.9566641471401" as="sourcePoint"/>
                        <mxPoint x="1209" y="-1067" as="targetPoint"/>
                    </mxGeometry>
                </mxCell>
                <mxCell id="114" value="Observable" style="swimlane;fontStyle=1;align=center;verticalAlign=top;childLayout=stackLayout;horizontal=1;startSize=26;horizontalStack=0;resizeParent=1;resizeParentMax=0;resizeLast=0;collapsible=1;marginBottom=0;strokeColor=default;fillColor=none;" parent="1" vertex="1">
                    <mxGeometry x="1239" y="-686.5" width="160" height="112" as="geometry"/>
                </mxCell>
                <mxCell id="115" value="" style="line;strokeWidth=1;fillColor=none;align=left;verticalAlign=middle;spacingTop=-1;spacingLeft=3;spacingRight=3;rotatable=0;labelPosition=right;points=[];portConstraint=eastwest;strokeColor=inherit;" parent="114" vertex="1">
                    <mxGeometry y="26" width="160" height="8" as="geometry"/>
                </mxCell>
                <mxCell id="116" value="+ notifyObservers()" style="text;strokeColor=none;fillColor=none;align=left;verticalAlign=top;spacingLeft=4;spacingRight=4;overflow=hidden;rotatable=0;points=[[0,0.5],[1,0.5]];portConstraint=eastwest;" parent="114" vertex="1">
                    <mxGeometry y="34" width="160" height="26" as="geometry"/>
                </mxCell>
                <mxCell id="117" value="+ addObserver(Observer o)" style="text;strokeColor=none;fillColor=none;align=left;verticalAlign=top;spacingLeft=4;spacingRight=4;overflow=hidden;rotatable=0;points=[[0,0.5],[1,0.5]];portConstraint=eastwest;" parent="114" vertex="1">
                    <mxGeometry y="60" width="160" height="26" as="geometry"/>
                </mxCell>
                <mxCell id="118" value="+ hasChanged()" style="text;strokeColor=none;fillColor=none;align=left;verticalAlign=top;spacingLeft=4;spacingRight=4;overflow=hidden;rotatable=0;points=[[0,0.5],[1,0.5]];portConstraint=eastwest;" parent="114" vertex="1">
                    <mxGeometry y="86" width="160" height="26" as="geometry"/>
                </mxCell>
                <mxCell id="119" value="" style="endArrow=block;dashed=1;endFill=0;endSize=12;html=1;" parent="1" source="31" target="90" edge="1">
                    <mxGeometry width="160" relative="1" as="geometry">
                        <mxPoint x="1283" y="81" as="sourcePoint"/>
                        <mxPoint x="1443" y="81" as="targetPoint"/>
                    </mxGeometry>
                </mxCell>
                <mxCell id="120" value="" style="endArrow=block;dashed=1;endFill=0;endSize=12;html=1;" parent="1" source="46" target="121" edge="1">
                    <mxGeometry width="160" relative="1" as="geometry">
                        <mxPoint x="-203" y="-1503.7266514806379" as="sourcePoint"/>
                        <mxPoint x="-462" y="-1325" as="targetPoint"/>
                    </mxGeometry>
                </mxCell>
                <mxCell id="121" value="&lt;span style=&quot;background-color: rgb(255, 255, 255);&quot;&gt;&amp;lt;&amp;lt;interface&amp;gt;&amp;gt;&lt;/span&gt;&lt;br&gt;Observer" style="swimlane;fontStyle=1;align=center;verticalAlign=middle;childLayout=stackLayout;horizontal=1;startSize=29;horizontalStack=0;resizeParent=1;resizeParentMax=0;resizeLast=0;collapsible=0;marginBottom=0;html=1;" parent="1" vertex="1">
                    <mxGeometry x="-813" y="298" width="290" height="62" as="geometry"/>
                </mxCell>
                <mxCell id="122" value="" style="line;strokeWidth=1;fillColor=none;align=left;verticalAlign=middle;spacingTop=-1;spacingLeft=3;spacingRight=3;rotatable=0;labelPosition=right;points=[];portConstraint=eastwest;strokeColor=inherit;" parent="121" vertex="1">
                    <mxGeometry y="29" width="290" height="8" as="geometry"/>
                </mxCell>
                <mxCell id="123" value="+ update(Observable : o, Object : arg)&amp;nbsp; : void" style="text;html=1;strokeColor=none;fillColor=none;align=left;verticalAlign=middle;spacingLeft=4;spacingRight=4;overflow=hidden;rotatable=0;points=[[0,0.5],[1,0.5]];portConstraint=eastwest;" parent="121" vertex="1">
                    <mxGeometry y="37" width="290" height="25" as="geometry"/>
                </mxCell>
                <mxCell id="352" value="&amp;lt;&amp;lt;anonymous&amp;gt;&amp;gt;&lt;br&gt;garbageOnClickListener" style="swimlane;fontStyle=1;align=center;verticalAlign=middle;childLayout=stackLayout;horizontal=1;startSize=29;horizontalStack=0;resizeParent=1;resizeParentMax=0;resizeLast=0;collapsible=0;marginBottom=0;html=1;" parent="1" vertex="1">
                    <mxGeometry x="777" y="247" width="200" height="62" as="geometry"/>
                </mxCell>
                <mxCell id="353" value="" style="line;strokeWidth=1;fillColor=none;align=left;verticalAlign=middle;spacingTop=-1;spacingLeft=3;spacingRight=3;rotatable=0;labelPosition=right;points=[];portConstraint=eastwest;strokeColor=inherit;" parent="352" vertex="1">
                    <mxGeometry y="29" width="200" height="8" as="geometry"/>
                </mxCell>
                <mxCell id="354" value="+ onClick() : void" style="text;html=1;strokeColor=none;fillColor=none;align=left;verticalAlign=middle;spacingLeft=4;spacingRight=4;overflow=hidden;rotatable=0;points=[[0,0.5],[1,0.5]];portConstraint=eastwest;" parent="352" vertex="1">
                    <mxGeometry y="37" width="200" height="25" as="geometry"/>
                </mxCell>
                <mxCell id="355" value="" style="endArrow=open;endSize=12;dashed=1;html=1;" parent="1" source="2" target="43" edge="1">
                    <mxGeometry x="-0.0103" y="-37" width="160" relative="1" as="geometry">
                        <mxPoint x="-1927" y="-1761" as="sourcePoint"/>
                        <mxPoint x="-1767" y="-1761" as="targetPoint"/>
                        <mxPoint as="offset"/>
                    </mxGeometry>
                </mxCell>
                <mxCell id="356" value="" style="endArrow=open;endSize=12;dashed=1;html=1;" parent="1" source="43" target="40" edge="1">
                    <mxGeometry x="-0.0103" y="-37" width="160" relative="1" as="geometry">
                        <mxPoint x="-1980.0000000000005" y="-1725" as="sourcePoint"/>
                        <mxPoint x="-1855.0000000000005" y="-1725" as="targetPoint"/>
                        <mxPoint as="offset"/>
                    </mxGeometry>
                </mxCell>
                <mxCell id="358" value="" style="endArrow=open;endSize=12;dashed=1;html=1;" parent="1" source="40" target="37" edge="1">
                    <mxGeometry x="-0.0103" y="-37" width="160" relative="1" as="geometry">
                        <mxPoint x="-515" y="-1129" as="sourcePoint"/>
                        <mxPoint x="-372" y="-1129" as="targetPoint"/>
                        <mxPoint as="offset"/>
                    </mxGeometry>
                </mxCell>
                <mxCell id="359" value="" style="endArrow=open;endSize=12;dashed=1;html=1;" parent="1" source="360" target="61" edge="1">
                    <mxGeometry x="-0.0103" y="-37" width="160" relative="1" as="geometry">
                        <mxPoint x="-240.5256556442414" y="-972.9999999999998" as="sourcePoint"/>
                        <mxPoint x="-349.3603192702394" y="-809" as="targetPoint"/>
                        <mxPoint as="offset"/>
                    </mxGeometry>
                </mxCell>
                <mxCell id="360" value="&amp;lt;&amp;lt;anonymous&amp;gt;&amp;gt;&lt;br&gt;signUpOnClickListener" style="swimlane;fontStyle=1;align=center;verticalAlign=middle;childLayout=stackLayout;horizontal=1;startSize=29;horizontalStack=0;resizeParent=1;resizeParentMax=0;resizeLast=0;collapsible=0;marginBottom=0;html=1;" parent="1" vertex="1">
                    <mxGeometry x="212" y="-1522" width="200" height="62" as="geometry"/>
                </mxCell>
                <mxCell id="361" value="" style="line;strokeWidth=1;fillColor=none;align=left;verticalAlign=middle;spacingTop=-1;spacingLeft=3;spacingRight=3;rotatable=0;labelPosition=right;points=[];portConstraint=eastwest;strokeColor=inherit;" parent="360" vertex="1">
                    <mxGeometry y="29" width="200" height="8" as="geometry"/>
                </mxCell>
                <mxCell id="362" value="+ onClick() : void" style="text;html=1;strokeColor=none;fillColor=none;align=left;verticalAlign=middle;spacingLeft=4;spacingRight=4;overflow=hidden;rotatable=0;points=[[0,0.5],[1,0.5]];portConstraint=eastwest;" parent="360" vertex="1">
                    <mxGeometry y="37" width="200" height="25" as="geometry"/>
                </mxCell>
                <mxCell id="364" value="" style="endArrow=open;startArrow=circlePlus;endFill=0;startFill=0;endSize=8;html=1;" parent="1" source="31" target="352" edge="1">
                    <mxGeometry width="160" relative="1" as="geometry">
                        <mxPoint x="443" y="381" as="sourcePoint"/>
                        <mxPoint x="603" y="381" as="targetPoint"/>
                    </mxGeometry>
                </mxCell>
                <mxCell id="365" value="" style="endArrow=open;startArrow=circlePlus;endFill=0;startFill=0;endSize=8;html=1;" parent="1" source="40" target="360" edge="1">
                    <mxGeometry width="160" relative="1" as="geometry">
                        <mxPoint x="-54" y="-1230" as="sourcePoint"/>
                        <mxPoint x="106" y="-1230" as="targetPoint"/>
                    </mxGeometry>
                </mxCell>
                <mxCell id="366" value="In fase di implementazione alcune di queste classi anonime sono state sostituite da EventFilter" style="shape=note2;boundedLbl=1;whiteSpace=wrap;html=1;size=25;verticalAlign=top;align=center;" parent="1" vertex="1">
                    <mxGeometry x="818" y="337" width="120" height="140" as="geometry"/>
                </mxCell>
                <mxCell id="371" value="&amp;lt;&amp;lt;anonymous&amp;gt;&amp;gt;&lt;br&gt;loginOnClickListener" style="swimlane;fontStyle=1;align=center;verticalAlign=middle;childLayout=stackLayout;horizontal=1;startSize=29;horizontalStack=0;resizeParent=1;resizeParentMax=0;resizeLast=0;collapsible=0;marginBottom=0;html=1;" parent="1" vertex="1">
                    <mxGeometry x="635" y="-1314" width="200" height="62" as="geometry"/>
                </mxCell>
                <mxCell id="372" value="" style="line;strokeWidth=1;fillColor=none;align=left;verticalAlign=middle;spacingTop=-1;spacingLeft=3;spacingRight=3;rotatable=0;labelPosition=right;points=[];portConstraint=eastwest;strokeColor=inherit;" parent="371" vertex="1">
                    <mxGeometry y="29" width="200" height="8" as="geometry"/>
                </mxCell>
                <mxCell id="373" value="+ onClick() : void" style="text;html=1;strokeColor=none;fillColor=none;align=left;verticalAlign=middle;spacingLeft=4;spacingRight=4;overflow=hidden;rotatable=0;points=[[0,0.5],[1,0.5]];portConstraint=eastwest;" parent="371" vertex="1">
                    <mxGeometry y="37" width="200" height="25" as="geometry"/>
                </mxCell>
                <mxCell id="374" value="" style="endArrow=open;startArrow=circlePlus;endFill=0;startFill=0;endSize=8;html=1;" parent="1" source="61" target="371" edge="1">
                    <mxGeometry width="160" relative="1" as="geometry">
                        <mxPoint x="98" y="-1129" as="sourcePoint"/>
                        <mxPoint x="233" y="-1129" as="targetPoint"/>
                    </mxGeometry>
                </mxCell>
                <mxCell id="379" value="&amp;lt;&amp;lt;anonymous&amp;gt;&amp;gt;&lt;br&gt;onKeyPressedListener" style="swimlane;fontStyle=1;align=center;verticalAlign=middle;childLayout=stackLayout;horizontal=1;startSize=29;horizontalStack=0;resizeParent=1;resizeParentMax=0;resizeLast=0;collapsible=0;marginBottom=0;html=1;" parent="1" vertex="1">
                    <mxGeometry x="-768" y="376" width="200" height="62" as="geometry"/>
                </mxCell>
                <mxCell id="380" value="" style="line;strokeWidth=1;fillColor=none;align=left;verticalAlign=middle;spacingTop=-1;spacingLeft=3;spacingRight=3;rotatable=0;labelPosition=right;points=[];portConstraint=eastwest;strokeColor=inherit;" parent="379" vertex="1">
                    <mxGeometry y="29" width="200" height="8" as="geometry"/>
                </mxCell>
                <mxCell id="381" value="+ onKeyPressed() : void" style="text;html=1;strokeColor=none;fillColor=none;align=left;verticalAlign=middle;spacingLeft=4;spacingRight=4;overflow=hidden;rotatable=0;points=[[0,0.5],[1,0.5]];portConstraint=eastwest;" parent="379" vertex="1">
                    <mxGeometry y="37" width="200" height="25" as="geometry"/>
                </mxCell>
                <mxCell id="382" value="" style="endArrow=open;startArrow=circlePlus;endFill=0;startFill=0;endSize=8;html=1;" parent="1" source="46" target="379" edge="1">
                    <mxGeometry width="160" relative="1" as="geometry">
                        <mxPoint x="-412" y="-225.00432989690694" as="sourcePoint"/>
                        <mxPoint x="-432" y="-62.8599999999999" as="targetPoint"/>
                    </mxGeometry>
                </mxCell>
                <mxCell id="383" value="&amp;lt;&amp;lt;anonymous&amp;gt;&amp;gt;&lt;br&gt;filterListener" style="swimlane;fontStyle=1;align=center;verticalAlign=middle;childLayout=stackLayout;horizontal=1;startSize=29;horizontalStack=0;resizeParent=1;resizeParentMax=0;resizeLast=0;collapsible=0;marginBottom=0;html=1;" parent="1" vertex="1">
                    <mxGeometry x="-776" y="446.0000000000002" width="200" height="62" as="geometry"/>
                </mxCell>
                <mxCell id="384" value="" style="line;strokeWidth=1;fillColor=none;align=left;verticalAlign=middle;spacingTop=-1;spacingLeft=3;spacingRight=3;rotatable=0;labelPosition=right;points=[];portConstraint=eastwest;strokeColor=inherit;" parent="383" vertex="1">
                    <mxGeometry y="29" width="200" height="8" as="geometry"/>
                </mxCell>
                <mxCell id="385" value="+ click() : void" style="text;html=1;strokeColor=none;fillColor=none;align=left;verticalAlign=middle;spacingLeft=4;spacingRight=4;overflow=hidden;rotatable=0;points=[[0,0.5],[1,0.5]];portConstraint=eastwest;" parent="383" vertex="1">
                    <mxGeometry y="37" width="200" height="25" as="geometry"/>
                </mxCell>
                <mxCell id="386" value="" style="endArrow=open;startArrow=circlePlus;endFill=0;startFill=0;endSize=8;html=1;" parent="1" source="46" target="383" edge="1">
                    <mxGeometry width="160" relative="1" as="geometry">
                        <mxPoint x="-402" y="-106.07407766990241" as="sourcePoint"/>
                        <mxPoint x="-452" y="28.070000000000164" as="targetPoint"/>
                    </mxGeometry>
                </mxCell>
                <mxCell id="387" value="&amp;lt;&amp;lt;anonymous&amp;gt;&amp;gt;&lt;br&gt;deleteListener" style="swimlane;fontStyle=1;align=center;verticalAlign=middle;childLayout=stackLayout;horizontal=1;startSize=29;horizontalStack=0;resizeParent=1;resizeParentMax=0;resizeLast=0;collapsible=0;marginBottom=0;html=1;" parent="1" vertex="1">
                    <mxGeometry x="-771" y="523.0000000000002" width="200" height="62" as="geometry"/>
                </mxCell>
                <mxCell id="388" value="" style="line;strokeWidth=1;fillColor=none;align=left;verticalAlign=middle;spacingTop=-1;spacingLeft=3;spacingRight=3;rotatable=0;labelPosition=right;points=[];portConstraint=eastwest;strokeColor=inherit;" parent="387" vertex="1">
                    <mxGeometry y="29" width="200" height="8" as="geometry"/>
                </mxCell>
                <mxCell id="389" value="+ click() : void" style="text;html=1;strokeColor=none;fillColor=none;align=left;verticalAlign=middle;spacingLeft=4;spacingRight=4;overflow=hidden;rotatable=0;points=[[0,0.5],[1,0.5]];portConstraint=eastwest;" parent="387" vertex="1">
                    <mxGeometry y="37" width="200" height="25" as="geometry"/>
                </mxCell>
                <mxCell id="390" value="" style="endArrow=open;startArrow=circlePlus;endFill=0;startFill=0;endSize=8;html=1;" parent="1" source="46" target="387" edge="1">
                    <mxGeometry width="160" relative="1" as="geometry">
                        <mxPoint x="-372" y="-148.16551401869128" as="sourcePoint"/>
                        <mxPoint x="-572.0000000000005" y="-90.00850467289729" as="targetPoint"/>
                    </mxGeometry>
                </mxCell>
                <mxCell id="391" value="&amp;lt;&amp;lt;anonymous&amp;gt;&amp;gt;&lt;br&gt;modificaListener" style="swimlane;fontStyle=1;align=center;verticalAlign=middle;childLayout=stackLayout;horizontal=1;startSize=29;horizontalStack=0;resizeParent=1;resizeParentMax=0;resizeLast=0;collapsible=0;marginBottom=0;html=1;" parent="1" vertex="1">
                    <mxGeometry x="-753" y="626.0000000000002" width="200" height="62" as="geometry"/>
                </mxCell>
                <mxCell id="392" value="" style="line;strokeWidth=1;fillColor=none;align=left;verticalAlign=middle;spacingTop=-1;spacingLeft=3;spacingRight=3;rotatable=0;labelPosition=right;points=[];portConstraint=eastwest;strokeColor=inherit;" parent="391" vertex="1">
                    <mxGeometry y="29" width="200" height="8" as="geometry"/>
                </mxCell>
                <mxCell id="393" value="+ click() : void" style="text;html=1;strokeColor=none;fillColor=none;align=left;verticalAlign=middle;spacingLeft=4;spacingRight=4;overflow=hidden;rotatable=0;points=[[0,0.5],[1,0.5]];portConstraint=eastwest;" parent="391" vertex="1">
                    <mxGeometry y="37" width="200" height="25" as="geometry"/>
                </mxCell>
                <mxCell id="394" value="" style="endArrow=open;startArrow=circlePlus;endFill=0;startFill=0;endSize=8;html=1;" parent="1" source="46" target="391" edge="1">
                    <mxGeometry width="160" relative="1" as="geometry">
                        <mxPoint x="-372" y="-101.28155339805835" as="sourcePoint"/>
                        <mxPoint x="-588.772277227723" y="5" as="targetPoint"/>
                    </mxGeometry>
                </mxCell>
                <mxCell id="395" value="&amp;lt;&amp;lt;anonymous&amp;gt;&amp;gt;&lt;br&gt;salvaListener" style="swimlane;fontStyle=1;align=center;verticalAlign=middle;childLayout=stackLayout;horizontal=1;startSize=29;horizontalStack=0;resizeParent=1;resizeParentMax=0;resizeLast=0;collapsible=0;marginBottom=0;html=1;" parent="1" vertex="1">
                    <mxGeometry x="680" y="978.5000000000002" width="200" height="62" as="geometry"/>
                </mxCell>
                <mxCell id="396" value="" style="line;strokeWidth=1;fillColor=none;align=left;verticalAlign=middle;spacingTop=-1;spacingLeft=3;spacingRight=3;rotatable=0;labelPosition=right;points=[];portConstraint=eastwest;strokeColor=inherit;" parent="395" vertex="1">
                    <mxGeometry y="29" width="200" height="8" as="geometry"/>
                </mxCell>
                <mxCell id="397" value="+ click() : void" style="text;html=1;strokeColor=none;fillColor=none;align=left;verticalAlign=middle;spacingLeft=4;spacingRight=4;overflow=hidden;rotatable=0;points=[[0,0.5],[1,0.5]];portConstraint=eastwest;" parent="395" vertex="1">
                    <mxGeometry y="37" width="200" height="25" as="geometry"/>
                </mxCell>
                <mxCell id="398" value="" style="endArrow=open;startArrow=circlePlus;endFill=0;startFill=0;endSize=8;html=1;" parent="1" source="49" target="395" edge="1">
                    <mxGeometry width="160" relative="1" as="geometry">
                        <mxPoint y="1014.0188349514569" as="sourcePoint"/>
                        <mxPoint x="-206.77227722772295" y="1070.98" as="targetPoint"/>
                    </mxGeometry>
                </mxCell>
                <mxCell id="399" value="" style="endArrow=block;startArrow=block;endFill=1;startFill=1;html=1;" parent="1" source="40" target="61" edge="1">
                    <mxGeometry width="160" relative="1" as="geometry">
                        <mxPoint x="-77" y="-717" as="sourcePoint"/>
                        <mxPoint x="83" y="-717" as="targetPoint"/>
                    </mxGeometry>
                </mxCell>
                <mxCell id="403" value="" style="endArrow=open;startArrow=circlePlus;endFill=0;startFill=0;endSize=8;html=1;" parent="1" source="52" target="416" edge="1">
                    <mxGeometry width="160" relative="1" as="geometry">
                        <mxPoint x="-718" y="830.9959223300966" as="sourcePoint"/>
                        <mxPoint x="-965.6124031007753" y="1261" as="targetPoint"/>
                    </mxGeometry>
                </mxCell>
                <mxCell id="404" value="&amp;lt;&amp;lt;anonymous&amp;gt;&amp;gt;&lt;br&gt;aggiungiBtn" style="swimlane;fontStyle=1;align=center;verticalAlign=middle;childLayout=stackLayout;horizontal=1;startSize=29;horizontalStack=0;resizeParent=1;resizeParentMax=0;resizeLast=0;collapsible=0;marginBottom=0;html=1;" parent="1" vertex="1">
                    <mxGeometry x="-1098" y="861" width="200" height="62" as="geometry"/>
                </mxCell>
                <mxCell id="405" value="" style="line;strokeWidth=1;fillColor=none;align=left;verticalAlign=middle;spacingTop=-1;spacingLeft=3;spacingRight=3;rotatable=0;labelPosition=right;points=[];portConstraint=eastwest;strokeColor=inherit;" parent="404" vertex="1">
                    <mxGeometry y="29" width="200" height="8" as="geometry"/>
                </mxCell>
                <mxCell id="406" value="+ click() : void" style="text;html=1;strokeColor=none;fillColor=none;align=left;verticalAlign=middle;spacingLeft=4;spacingRight=4;overflow=hidden;rotatable=0;points=[[0,0.5],[1,0.5]];portConstraint=eastwest;" parent="404" vertex="1">
                    <mxGeometry y="37" width="200" height="25" as="geometry"/>
                </mxCell>
                <mxCell id="407" value="" style="endArrow=open;startArrow=circlePlus;endFill=0;startFill=0;endSize=8;html=1;entryX=1;entryY=0.25;entryDx=0;entryDy=0;" parent="1" source="52" target="419" edge="1">
                    <mxGeometry width="160" relative="1" as="geometry">
                        <mxPoint x="-718" y="870" as="sourcePoint"/>
                        <mxPoint x="-788" y="1056.0700000000002" as="targetPoint"/>
                    </mxGeometry>
                </mxCell>
                <mxCell id="408" value="&amp;lt;&amp;lt;anonymous&amp;gt;&amp;gt;&lt;br&gt;categoriaSuccessivaBtn" style="swimlane;fontStyle=1;align=center;verticalAlign=middle;childLayout=stackLayout;horizontal=1;startSize=29;horizontalStack=0;resizeParent=1;resizeParentMax=0;resizeLast=0;collapsible=0;marginBottom=0;html=1;" parent="1" vertex="1">
                    <mxGeometry x="-1108" y="954" width="200" height="62" as="geometry"/>
                </mxCell>
                <mxCell id="409" value="" style="line;strokeWidth=1;fillColor=none;align=left;verticalAlign=middle;spacingTop=-1;spacingLeft=3;spacingRight=3;rotatable=0;labelPosition=right;points=[];portConstraint=eastwest;strokeColor=inherit;" parent="408" vertex="1">
                    <mxGeometry y="29" width="200" height="8" as="geometry"/>
                </mxCell>
                <mxCell id="410" value="+ click() : void" style="text;html=1;strokeColor=none;fillColor=none;align=left;verticalAlign=middle;spacingLeft=4;spacingRight=4;overflow=hidden;rotatable=0;points=[[0,0.5],[1,0.5]];portConstraint=eastwest;" parent="408" vertex="1">
                    <mxGeometry y="37" width="200" height="25" as="geometry"/>
                </mxCell>
                <mxCell id="411" value="" style="endArrow=open;startArrow=circlePlus;endFill=0;startFill=0;endSize=8;html=1;" parent="1" source="52" target="408" edge="1">
                    <mxGeometry width="160" relative="1" as="geometry">
                        <mxPoint x="-718" y="916.7184466019417" as="sourcePoint"/>
                        <mxPoint x="-908.0000000000005" y="937.9914953271027" as="targetPoint"/>
                    </mxGeometry>
                </mxCell>
                <mxCell id="412" value="&amp;lt;&amp;lt;anonymous&amp;gt;&amp;gt;&lt;br&gt;categoriaPrecedenteBtn" style="swimlane;fontStyle=1;align=center;verticalAlign=middle;childLayout=stackLayout;horizontal=1;startSize=29;horizontalStack=0;resizeParent=1;resizeParentMax=0;resizeLast=0;collapsible=0;marginBottom=0;html=1;" parent="1" vertex="1">
                    <mxGeometry x="-1118" y="1051" width="200" height="62" as="geometry"/>
                </mxCell>
                <mxCell id="413" value="" style="line;strokeWidth=1;fillColor=none;align=left;verticalAlign=middle;spacingTop=-1;spacingLeft=3;spacingRight=3;rotatable=0;labelPosition=right;points=[];portConstraint=eastwest;strokeColor=inherit;" parent="412" vertex="1">
                    <mxGeometry y="29" width="200" height="8" as="geometry"/>
                </mxCell>
                <mxCell id="414" value="+ click() : void" style="text;html=1;strokeColor=none;fillColor=none;align=left;verticalAlign=middle;spacingLeft=4;spacingRight=4;overflow=hidden;rotatable=0;points=[[0,0.5],[1,0.5]];portConstraint=eastwest;" parent="412" vertex="1">
                    <mxGeometry y="37" width="200" height="25" as="geometry"/>
                </mxCell>
                <mxCell id="415" value="" style="endArrow=open;startArrow=circlePlus;endFill=0;startFill=0;endSize=8;html=1;" parent="1" source="52" target="412" edge="1">
                    <mxGeometry width="160" relative="1" as="geometry">
                        <mxPoint x="-718" y="976.0388349514569" as="sourcePoint"/>
                        <mxPoint x="-924.772277227723" y="1033" as="targetPoint"/>
                    </mxGeometry>
                </mxCell>
                <mxCell id="416" value="&amp;lt;&amp;lt;anonymous&amp;gt;&amp;gt;&lt;br&gt;resetBtn" style="swimlane;fontStyle=1;align=center;verticalAlign=middle;childLayout=stackLayout;horizontal=1;startSize=29;horizontalStack=0;resizeParent=1;resizeParentMax=0;resizeLast=0;collapsible=0;marginBottom=0;html=1;" parent="1" vertex="1">
                    <mxGeometry x="-1118" y="1138" width="200" height="62" as="geometry"/>
                </mxCell>
                <mxCell id="417" value="" style="line;strokeWidth=1;fillColor=none;align=left;verticalAlign=middle;spacingTop=-1;spacingLeft=3;spacingRight=3;rotatable=0;labelPosition=right;points=[];portConstraint=eastwest;strokeColor=inherit;" parent="416" vertex="1">
                    <mxGeometry y="29" width="200" height="8" as="geometry"/>
                </mxCell>
                <mxCell id="418" value="+ click() : void" style="text;html=1;strokeColor=none;fillColor=none;align=left;verticalAlign=middle;spacingLeft=4;spacingRight=4;overflow=hidden;rotatable=0;points=[[0,0.5],[1,0.5]];portConstraint=eastwest;" parent="416" vertex="1">
                    <mxGeometry y="37" width="200" height="25" as="geometry"/>
                </mxCell>
                <mxCell id="419" value="&amp;lt;&amp;lt;anonymous&amp;gt;&amp;gt;&lt;br&gt;applicaBtn" style="swimlane;fontStyle=1;align=center;verticalAlign=middle;childLayout=stackLayout;horizontal=1;startSize=29;horizontalStack=0;resizeParent=1;resizeParentMax=0;resizeLast=0;collapsible=0;marginBottom=0;html=1;" parent="1" vertex="1">
                    <mxGeometry x="-1118" y="1231" width="200" height="62" as="geometry"/>
                </mxCell>
                <mxCell id="420" value="" style="line;strokeWidth=1;fillColor=none;align=left;verticalAlign=middle;spacingTop=-1;spacingLeft=3;spacingRight=3;rotatable=0;labelPosition=right;points=[];portConstraint=eastwest;strokeColor=inherit;" parent="419" vertex="1">
                    <mxGeometry y="29" width="200" height="8" as="geometry"/>
                </mxCell>
                <mxCell id="421" value="+ click() : void" style="text;html=1;strokeColor=none;fillColor=none;align=left;verticalAlign=middle;spacingLeft=4;spacingRight=4;overflow=hidden;rotatable=0;points=[[0,0.5],[1,0.5]];portConstraint=eastwest;" parent="419" vertex="1">
                    <mxGeometry y="37" width="200" height="25" as="geometry"/>
                </mxCell>
                <mxCell id="422" value="" style="endArrow=open;startArrow=circlePlus;endFill=0;startFill=0;endSize=8;html=1;entryX=1;entryY=0.25;entryDx=0;entryDy=0;" parent="1" source="52" target="404" edge="1">
                    <mxGeometry width="160" relative="1" as="geometry">
                        <mxPoint x="-708" y="879.8344859813078" as="sourcePoint"/>
                        <mxPoint x="-908" y="886.5000000000009" as="targetPoint"/>
                    </mxGeometry>
                </mxCell>
                <mxCell id="423" value="SideBarController" style="swimlane;fontStyle=1;align=center;verticalAlign=top;childLayout=stackLayout;horizontal=1;startSize=26;horizontalStack=0;resizeParent=1;resizeParentMax=0;resizeLast=0;collapsible=1;marginBottom=0;" parent="1" vertex="1">
                    <mxGeometry x="-348" y="-54" width="201" height="216" as="geometry"/>
                </mxCell>
                <mxCell id="425" value="" style="line;strokeWidth=1;fillColor=none;align=left;verticalAlign=middle;spacingTop=-1;spacingLeft=3;spacingRight=3;rotatable=0;labelPosition=right;points=[];portConstraint=eastwest;strokeColor=inherit;" parent="423" vertex="1">
                    <mxGeometry y="26" width="201" height="8" as="geometry"/>
                </mxCell>
                <mxCell id="426" value="+ goToNotice(): void" style="text;strokeColor=none;fillColor=none;align=left;verticalAlign=top;spacingLeft=4;spacingRight=4;overflow=hidden;rotatable=0;points=[[0,0.5],[1,0.5]];portConstraint=eastwest;" parent="423" vertex="1">
                    <mxGeometry y="34" width="201" height="26" as="geometry"/>
                </mxCell>
                <mxCell id="427" value="+ goToMenu(): void" style="text;strokeColor=none;fillColor=none;align=left;verticalAlign=top;spacingLeft=4;spacingRight=4;overflow=hidden;rotatable=0;points=[[0,0.5],[1,0.5]];portConstraint=eastwest;" parent="423" vertex="1">
                    <mxGeometry y="60" width="201" height="26" as="geometry"/>
                </mxCell>
                <mxCell id="428" value="+ goToGestisciPersonale(): void" style="text;strokeColor=none;fillColor=none;align=left;verticalAlign=top;spacingLeft=4;spacingRight=4;overflow=hidden;rotatable=0;points=[[0,0.5],[1,0.5]];portConstraint=eastwest;" parent="423" vertex="1">
                    <mxGeometry y="86" width="201" height="26" as="geometry"/>
                </mxCell>
                <mxCell id="429" value="+ goToPersonalizzaAttivita(): void" style="text;strokeColor=none;fillColor=none;align=left;verticalAlign=top;spacingLeft=4;spacingRight=4;overflow=hidden;rotatable=0;points=[[0,0.5],[1,0.5]];portConstraint=eastwest;" parent="423" vertex="1">
                    <mxGeometry y="112" width="201" height="26" as="geometry"/>
                </mxCell>
                <mxCell id="430" value="+ goToAccount(): void" style="text;strokeColor=none;fillColor=none;align=left;verticalAlign=top;spacingLeft=4;spacingRight=4;overflow=hidden;rotatable=0;points=[[0,0.5],[1,0.5]];portConstraint=eastwest;" parent="423" vertex="1">
                    <mxGeometry y="138" width="201" height="26" as="geometry"/>
                </mxCell>
                <mxCell id="431" value="+ goToHome(): void" style="text;strokeColor=none;fillColor=none;align=left;verticalAlign=top;spacingLeft=4;spacingRight=4;overflow=hidden;rotatable=0;points=[[0,0.5],[1,0.5]];portConstraint=eastwest;" parent="423" vertex="1">
                    <mxGeometry y="164" width="201" height="26" as="geometry"/>
                </mxCell>
                <mxCell id="484" value="+ changeScene(): void" style="text;strokeColor=none;fillColor=none;align=left;verticalAlign=top;spacingLeft=4;spacingRight=4;overflow=hidden;rotatable=0;points=[[0,0.5],[1,0.5]];portConstraint=eastwest;" parent="423" vertex="1">
                    <mxGeometry y="190" width="201" height="26" as="geometry"/>
                </mxCell>
                <mxCell id="432" value="" style="endArrow=block;startArrow=block;endFill=1;startFill=1;html=1;" parent="1" source="58" target="423" edge="1">
                    <mxGeometry width="160" relative="1" as="geometry">
                        <mxPoint x="-279" y="27" as="sourcePoint"/>
                        <mxPoint x="-119" y="27" as="targetPoint"/>
                    </mxGeometry>
                </mxCell>
                <mxCell id="433" value="" style="endArrow=block;startArrow=block;endFill=1;startFill=1;html=1;" parent="1" source="55" target="423" edge="1">
                    <mxGeometry width="160" relative="1" as="geometry">
                        <mxPoint x="-279" y="27" as="sourcePoint"/>
                        <mxPoint x="-119" y="27" as="targetPoint"/>
                    </mxGeometry>
                </mxCell>
                <mxCell id="434" value="" style="endArrow=block;startArrow=block;endFill=1;startFill=1;html=1;" parent="1" source="423" target="31" edge="1">
                    <mxGeometry width="160" relative="1" as="geometry">
                        <mxPoint x="-279" y="27" as="sourcePoint"/>
                        <mxPoint x="-119" y="27" as="targetPoint"/>
                    </mxGeometry>
                </mxCell>
                <mxCell id="435" value="" style="endArrow=block;startArrow=block;endFill=1;startFill=1;html=1;" parent="1" source="423" target="28" edge="1">
                    <mxGeometry width="160" relative="1" as="geometry">
                        <mxPoint x="-279" y="27" as="sourcePoint"/>
                        <mxPoint x="-119" y="27" as="targetPoint"/>
                    </mxGeometry>
                </mxCell>
                <mxCell id="436" value="" style="endArrow=block;startArrow=block;endFill=1;startFill=1;html=1;" parent="1" source="37" target="423" edge="1">
                    <mxGeometry width="160" relative="1" as="geometry">
                        <mxPoint x="-279" y="-326" as="sourcePoint"/>
                        <mxPoint x="-119" y="-326" as="targetPoint"/>
                    </mxGeometry>
                </mxCell>
                <mxCell id="437" value="" style="endArrow=block;startArrow=block;endFill=1;startFill=1;html=1;" parent="1" source="46" target="423" edge="1">
                    <mxGeometry width="160" relative="1" as="geometry">
                        <mxPoint x="-279" y="-326" as="sourcePoint"/>
                        <mxPoint x="-119" y="-326" as="targetPoint"/>
                    </mxGeometry>
                </mxCell>
                <mxCell id="440" style="edgeStyle=none;html=1;" parent="1" source="28" target="71" edge="1">
                    <mxGeometry relative="1" as="geometry"/>
                </mxCell>
                <mxCell id="441" value="1" style="edgeLabel;html=1;align=center;verticalAlign=middle;resizable=0;points=[];" parent="440" connectable="0" vertex="1">
                    <mxGeometry x="0.465" y="5" relative="1" as="geometry">
                        <mxPoint x="-1" as="offset"/>
                    </mxGeometry>
                </mxCell>
                <mxCell id="448" value="" style="endArrow=open;endSize=12;dashed=1;html=1;" parent="1" source="58" target="34" edge="1">
                    <mxGeometry x="-0.264" y="-79" width="160" relative="1" as="geometry">
                        <mxPoint x="-571" y="-787" as="sourcePoint"/>
                        <mxPoint x="-411" y="-787" as="targetPoint"/>
                        <mxPoint as="offset"/>
                    </mxGeometry>
                </mxCell>
                <mxCell id="456" value="" style="endArrow=open;endSize=12;dashed=1;html=1;" parent="1" source="46" target="49" edge="1">
                    <mxGeometry x="1" y="343" width="160" relative="1" as="geometry">
                        <mxPoint x="219" y="911" as="sourcePoint"/>
                        <mxPoint x="379" y="911" as="targetPoint"/>
                        <mxPoint x="11" y="15" as="offset"/>
                    </mxGeometry>
                </mxCell>
                <mxCell id="457" value="" style="endArrow=open;endSize=12;dashed=1;html=1;" parent="1" source="46" target="52" edge="1">
                    <mxGeometry x="-1" y="708" width="160" relative="1" as="geometry">
                        <mxPoint x="219" y="911" as="sourcePoint"/>
                        <mxPoint x="379" y="911" as="targetPoint"/>
                        <mxPoint x="107" y="-441" as="offset"/>
                    </mxGeometry>
                </mxCell>
            </root>
        </mxGraphModel>
    </diagram>
</mxfile>